<svg xmlns="http://www.w3.org/2000/svg" width="35" height="28" viewBox="0 0 35 28">
    <path fill="#23CAFC" fill-rule="evenodd" d="M31.81 20.237a4.458 4.458 0 0 1-2.413.716c-2.347 0-4.517-1.873-4.517-4.526V8.709c1.892 1.022 4.635 2.776 7.03 4.362 2.56 1.694 2.537 5.47-.045 7.13l-.055.036zm-14.322 6.016s-5.283-3.062-5.8-3.543c-.242-.225-.237-.547-.242-.675h12.097c-.005.128 0 .45-.242.675-.517.48-5.813 3.543-5.813 3.543zM3.195 20.237l-.056-.036c-2.58-1.66-2.604-5.436-.045-7.13 2.396-1.586 5.138-3.34 7.03-4.362v4.018l-.002.046v2.295l.002 1.359c0 2.653-2.17 4.526-4.516 4.526-.81 0-1.643-.224-2.413-.716zM11.58 7.011c.017-.135.016-.451.246-.674.5-.486 4.714-3.543 5.664-3.543.951 0 5.16 3.062 5.666 3.543.235.224.238.53.257.674l.02.224c.042.493.078 1.252.108 1.908.032.68-.51 1.249-1.188 1.249h-9.712c-.679 0-1.22-.569-1.189-1.249.031-.656.067-1.414.107-1.908l.021-.224zm-.267 5.741a1.19 1.19 0 0 1 1.188-1.166h9.99c.657 0 1.19.532 1.19 1.19v1.1H11.314v-1.124zm12.348 2.317l-.031 2.29H11.35l-.037-2.29h12.348zm-.056 3.483l-.042 2.29h-12.15l-.04-2.29h12.232zm1.84-10.893l-.82-.443a85.685 85.685 0 0 0-.028-.317c-.033-.305-.098-.927-.623-1.427-.02-.02-1.218-.982-2.62-1.943l.006-1.583 1.013.67c.314.206.735.12.941-.195a.683.683 0 0 0-.194-.945L21.054.112A.678.678 0 0 0 20 .682v1.972c-.992-.598-1.936-1.053-2.51-1.053-.581 0-1.55.47-2.565 1.084V.682a.678.678 0 1 0-1.053-.57l-2.066 1.364a.683.683 0 0 0-.194.945.679.679 0 0 0 .941.194l1.014-.669v1.521c0 .031.005.061.009.091-1.336.914-2.478 1.825-2.578 1.921-.518.503-.576 1.13-.597 1.365l-.027.28-.007.099-.807.436c-1.623.877-4.019 2.362-7.122 4.416A5.434 5.434 0 0 0 0 16.658a5.43 5.43 0 0 0 2.498 4.548c.983.628 2.038.94 3.11.94a5.691 5.691 0 0 0 4.598-2.347l.019 1.043.01.513.011.68c.03.68.239 1.183.634 1.55.535.498 3.997 2.532 6.014 3.7l.594.345.594-.344c2.021-1.168 5.492-3.203 6.027-3.701.395-.367.604-.87.621-1.495l.041-1.233v-1.08c.199.273.418.533.667.77a5.783 5.783 0 0 0 3.959 1.599 5.666 5.666 0 0 0 3.051-.903c1.61-1.035 2.544-2.735 2.557-4.585a5.434 5.434 0 0 0-2.44-4.583c-3.102-2.054-5.498-3.54-7.12-4.416z"/>
</svg>
