<svg xmlns="http://www.w3.org/2000/svg" width="94" height="30" viewBox="0 0 94 30">
    <path fill="#5F5C5A" fill-rule="evenodd" d="M84.861 9.53l-.044.125a8.82 8.82 0 0 0-.864.13c.304-.079.606-.169.908-.254M88.758.785C81.511 4.173 73.651 5.36 65.72 4.487c-3.444-.378-4.243 5.56-.782 6.108 6.292.994 12.334.802 18.226-.62-2.03.624-3.626 1.907-5.59 3.239-3.068 2.079-6.254 3.953-9.652 5.447-7.074 3.108-14.758 4.658-22.473 4.677C28.35 23.381 12.27 15.829.929 3.1c-.393-.441-1.175.137-.83.633C10.152 18.212 26.09 27.803 43.784 29.18c8.424.656 17.218-.805 25.105-3.774 3.13-1.177 7.66-2.852 11.459-5.198-1.054 2.193-1.856 4.357-1.252 6.937.356 1.518 2.056 1.955 3.316 1.363 3.907-1.843 4.92-6.803 6.484-10.567a188.645 188.645 0 0 0 4.925-13.27C94.84 1.588 91.26-.385 88.758.785"/>
</svg>
