<svg xmlns="http://www.w3.org/2000/svg" xmlns:xlink="http://www.w3.org/1999/xlink" width="898" height="289" viewBox="0 0 898 289">
    <defs>
        <path id="a" d="M0 162.673V.903h98.652v161.77z"/>
        <path id="c" d="M95.552 114H.19V.98h95.36V114z"/>
        <path id="e" d="M48.551 114H.876V.98h47.675V114z"/>
        <path id="g" d="M0 288.487h897.306V0H0z"/>
    </defs>
    <g fill="none" fill-rule="evenodd">
        <path fill="#2D3E50" d="M63.93 117.309a4.711 4.711 0 0 0-4.712-4.711H39.433a4.713 4.713 0 0 0-4.714 4.71v15.677h29.21v-15.676z"/>
        <g transform="translate(0 125.487)">
            <mask id="b" fill="#fff">
                <use xlink:href="#a"/>
            </mask>
            <path fill="#E8EAF0" d="M80.614 162.673h-62.58C8.09 162.673 0 154.58 0 144.635V29.01c0-9.947 8.09-18.038 18.035-18.038h6.558V5.612a4.709 4.709 0 0 1 4.71-4.71h40.044a4.709 4.709 0 0 1 4.709 4.71v5.36h6.558c9.948 0 18.038 8.09 18.038 18.037v115.626c0 9.945-8.09 18.038-18.038 18.038" mask="url(#b)"/>
        </g>
        <path fill="#D3D8E3" d="M80.614 136.458h-6.558V131.1a4.71 4.71 0 0 0-4.71-4.71h-20.02v161.77h31.288c9.948 0 18.038-8.093 18.038-18.038V154.496c0-9.947-8.09-18.038-18.038-18.038"/>
        <path fill="#2D3E50" d="M39.433 151.13h19.785a4.71 4.71 0 0 0 4.711-4.708v-13.437H34.72v13.437a4.712 4.712 0 0 0 4.714 4.709"/>
        <path fill="#9198A8" d="M71.948 122.019H26.7a4.711 4.711 0 0 1 0-9.421h45.248a4.71 4.71 0 1 1 0 9.42"/>
        <path fill="#7F8694" d="M71.948 112.598H49.326v9.42h22.622a4.71 4.71 0 1 0 0-9.42"/>
        <path fill="#F44336" d="M6.592 211.519v58.604c0 6.31 5.134 11.444 11.443 11.444h62.579c6.309 0 11.443-5.134 11.443-11.444v-58.604H6.592z"/>
        <path fill="#D61818" d="M49.326 281.567h31.288c6.309 0 11.443-5.135 11.443-11.445v-58.604H49.326v70.049z"/>
        <path fill="#FFF" d="M21.171 151.13a5.842 5.842 0 1 1-11.683.002 5.842 5.842 0 0 1 11.683-.001M19.71 220.568a4.379 4.379 0 1 1-8.759 0 4.379 4.379 0 0 1 8.76 0"/>
        <g transform="translate(201 174.487)">
            <mask id="d" fill="#fff">
                <use xlink:href="#c"/>
            </mask>
            <path fill="#E8EAF0" d="M69.4 39.877c0-.1.011-.2.011-.29V.978H26.33v38.607c0 .091.013.191.013.291C6.448 76.428-4.404 92.553 2.056 103.428c4.765 8.043 15.771 10.001 32.872 10.443 3.878.105 8.071.13 12.58.13h.737c24.366 0 39.6-.708 45.44-10.573 6.46-10.875-4.38-27-24.285-63.55" mask="url(#d)"/>
        </g>
        <g transform="translate(248 174.487)">
            <mask id="f" fill="#fff">
                <use xlink:href="#e"/>
            </mask>
            <path fill="#D3D8E3" d="M22.411 39.586V.98H.876V114h.37c24.365 0 39.6-.707 45.438-10.572 6.461-10.875-4.379-27-24.284-63.55 0-.1.011-.2.011-.292" mask="url(#f)"/>
        </g>
        <path fill="#E8EAF0" d="M270.411 176.961h-43.08a4.34 4.34 0 0 1-4.335-4.352v-1.635c0-2.4 1.94-4.339 4.334-4.339h43.081a4.344 4.344 0 0 1 4.346 4.339v1.635a4.35 4.35 0 0 1-4.346 4.352"/>
        <path fill="#1CBEC2" d="M208.968 274.418c3.958 6.687 18.888 7.2 39.54 7.2h.737c20.654 0 35.57-.513 39.54-7.207 2.373-3.995-.208-11.453-5.921-22.738H214.88c-5.715 11.285-8.284 18.749-5.912 22.745"/>
        <path fill="#0DA3A6" d="M248.876 251.673v29.945h.37c20.653 0 35.569-.512 39.54-7.207 2.372-3.995-.21-11.453-5.921-22.738h-33.989z"/>
        <mask id="h" fill="#fff">
            <use xlink:href="#g"/>
        </mask>
        <path fill="#D3D8E3" d="M227.33 184.016h43.081v-7.055H227.33zM270.411 166.635h-21.535v10.326h21.535a4.35 4.35 0 0 0 4.346-4.351v-1.636c0-2.4-1.95-4.34-4.346-4.34" mask="url(#h)"/>
        <path fill="#FFF" d="M223.149 258.356a3.895 3.895 0 0 1-7.787 0 3.895 3.895 0 0 1 7.787 0" mask="url(#h)"/>
        <path fill="#4D6073" d="M519.036 157.232h-16.372v-12.534h-45.158v12.534h-16.372c-9.168 0-16.593 7.429-16.593 16.589v97.886c0 9.161 7.425 16.59 16.593 16.59h77.902c9.165 0 16.59-7.429 16.59-16.59V173.82c0-9.16-7.425-16.59-16.59-16.59" mask="url(#h)"/>
        <path fill="#2D3E50" d="M519.036 157.232h-16.372v-12.534h-22.58v143.6h38.952c9.165 0 16.59-7.43 16.59-16.591V173.82c0-9.16-7.425-16.59-16.59-16.59" mask="url(#h)"/>
        <path fill="#0DA3A6" d="M511.823 200.21h-31.739v52.708h31.74a5.866 5.866 0 0 0 5.865-5.863v-40.981a5.864 5.864 0 0 0-5.866-5.864" mask="url(#h)"/>
        <path fill="#1CBEC2" d="M511.823 258.017h-63.477a5.866 5.866 0 0 1-5.866-5.863v-57.975a5.863 5.863 0 0 1 5.866-5.865h63.477a5.863 5.863 0 0 1 5.866 5.865v57.975a5.866 5.866 0 0 1-5.866 5.863" mask="url(#h)"/>
        <path fill="#0DA3A6" d="M511.823 188.314h-31.556v69.703h31.556a5.866 5.866 0 0 0 5.866-5.863v-57.975a5.863 5.863 0 0 0-5.866-5.865" mask="url(#h)"/>
        <path fill="#FEC107" d="M507.599 153.142h-55.03v-17.06c0-5.323 4.314-9.641 9.64-9.641h35.75c5.327 0 9.64 4.318 9.64 9.642v17.059z" mask="url(#h)"/>
        <path fill="#FF9801" d="M497.96 126.44h-17.876v26.702h27.515v-17.059c0-5.325-4.314-9.642-9.639-9.642" mask="url(#h)"/>
        <path fill="#F44336" d="M465.414 154.178a4.105 4.105 0 0 1-4.107-4.105v-10.921a4.108 4.108 0 0 1 4.107-4.108 4.108 4.108 0 0 1 4.101 4.108v10.92a4.105 4.105 0 0 1-4.1 4.106M480.084 154.178a4.106 4.106 0 0 1-4.103-4.105v-10.921a4.109 4.109 0 0 1 4.103-4.108 4.107 4.107 0 0 1 4.104 4.108v10.92a4.104 4.104 0 0 1-4.104 4.106M494.757 154.178a4.106 4.106 0 0 1-4.104-4.105v-10.921a4.108 4.108 0 0 1 4.104-4.108 4.108 4.108 0 0 1 4.104 4.108v10.92a4.105 4.105 0 0 1-4.104 4.106" mask="url(#h)"/>
        <path fill="#FF9801" d="M510.907 153.142a4.103 4.103 0 0 1-4.104 4.104h-53.075a4.106 4.106 0 0 1 0-8.212h53.075a4.106 4.106 0 0 1 4.104 4.108" mask="url(#h)"/>
        <path fill="#FFF" d="M447.802 172.223a7.38 7.38 0 0 1-7.38 7.38 7.383 7.383 0 0 1-7.377-7.38 7.379 7.379 0 0 1 14.757 0" mask="url(#h)"/>
        <path fill="#7F8694" d="M358.79 172.44a6.67 6.67 0 0 1-6.671 6.672h-18.742a6.67 6.67 0 0 1-6.671-6.672v-11.648a6.669 6.669 0 0 1 6.67-6.672h18.743a6.669 6.669 0 0 1 6.67 6.672v11.648zM401.695 173.218a6.666 6.666 0 0 1-6.67 6.663h-18.743a6.666 6.666 0 0 1-6.67-6.663v-11.656a6.672 6.672 0 0 1 6.67-6.67h18.743a6.672 6.672 0 0 1 6.67 6.67v11.656z" mask="url(#h)"/>
        <path fill="#4D6073" d="M411.025 176.709c-2.416-3.124-5.72-5.283-9.33-6.38v2.889c0 1.393-.43 2.692-1.166 3.761a11.935 11.935 0 0 1 5.193 3.845c1.353 1.674 3.2 2.979 5.1 2.271 1.758-.659 2.438-3.491.203-6.386M326.706 170.434c-3.485 1.125-6.664 3.24-9.003 6.275-2.242 2.895-1.555 5.727.194 6.386 1.903.708 3.756-.597 5.102-2.27a11.977 11.977 0 0 1 5.415-3.936 6.65 6.65 0 0 1-1.708-4.45v-2.005z" mask="url(#h)"/>
        <path fill="#4D6073" d="M396.878 155.162l-27.24 5.88-21.157 4.56-19.38 4.185c-.05.015-.098.035-.153.05-.757.145-1.507.36-2.242.596v2.006c0 1.715.652 3.271 1.707 4.45a12.86 12.86 0 0 1 2.104-.554l.034-.008 12.995-2.805 15.244-3.29 21.449-4.63 20.22-4.36a3.408 3.408 0 0 0 1.18-.513 6.672 6.672 0 0 0-4.761-5.567" mask="url(#h)"/>
        <path fill="#4D6073" d="M399.772 169.837c-.055-.015-.096-.035-.152-.05l-30.009-6.475-10.822-2.339-28.418-6.13a6.668 6.668 0 0 0-3.644 5.588c.417.389.937.679 1.54.811l30.522 6.588 10.822 2.332 15.57 3.361 12.988 2.804.035.008c.798.138 1.575.354 2.325.644a6.61 6.61 0 0 0 1.166-3.761v-2.889a18.304 18.304 0 0 0-1.923-.492" mask="url(#h)"/>
        <path fill="#4D6073" d="M333.954 152.871h-7.85a3.35 3.35 0 0 0 0 6.699h1.505l2.333-3.006c-.222-1.486 3.345.028 3.831-1.444.25-.757.382-1.507.181-2.249M394.769 152.871h7.851a3.35 3.35 0 0 1 0 6.699h-1.506l-2.333-3.006c.222-1.486-3.345.028-3.831-1.444-.25-.757-.382-1.507-.181-2.249" mask="url(#h)"/>
        <path fill="#E8EAF0" d="M395.372 152.871h-62.023c-4.963 0-9.003 4.033-9.003 9.003v11.038c0 4.963 4.04 8.996 9.003 8.996h18.673c4.97 0 9.003-4.033 9.003-8.996v-7.762a3.543 3.543 0 0 1 3.335-2.366c1.545 0 2.846.991 3.336 2.366v7.762c0 4.963 4.04 8.996 9.003 8.996h18.673c4.97 0 9.003-4.033 9.003-8.996v-11.038c0-4.97-4.033-9.003-9.003-9.003" mask="url(#h)"/>
        <path fill="#D3D8E3" d="M342.748 152.871v29.037h9.274c4.97 0 9.003-4.033 9.003-8.996v-7.762a3.543 3.543 0 0 1 3.335-2.366v-9.913h-21.612zM395.372 152.871h-9.718v29.037h9.718c4.97 0 9.003-4.033 9.003-8.996v-11.038c0-4.97-4.033-9.003-9.003-9.003" mask="url(#h)"/>
        <path fill="#C0C3CF" d="M401.532 172.912c0 3.392-2.764 6.152-6.16 6.152h-18.673c-3.396 0-6.16-2.76-6.16-6.152v-8.255l-.165-.462a6.405 6.405 0 0 0-6.014-4.255 6.404 6.404 0 0 0-6.013 4.255l-.165.462v8.255c0 3.392-2.764 6.152-6.16 6.152h-18.673c-3.397 0-6.16-2.76-6.16-6.152v-11.038a6.166 6.166 0 0 1 6.16-6.159h62.023a6.166 6.166 0 0 1 6.16 6.16v11.037zm-6.16-20.04h-62.023c-4.963 0-9.003 4.032-9.003 9.002v11.038c0 4.963 4.04 8.996 9.003 8.996h18.673c4.97 0 9.003-4.033 9.003-8.996v-7.762a3.543 3.543 0 0 1 3.335-2.366c1.545 0 2.846.991 3.336 2.366v7.762c0 4.963 4.04 8.996 9.003 8.996h18.673c4.97 0 9.003-4.033 9.003-8.996v-11.038c0-4.97-4.033-9.003-9.003-9.003z" mask="url(#h)"/>
        <path fill="#FFF" d="M335.835 161.33a3.087 3.087 0 0 1-6.173 0 3.086 3.086 0 1 1 6.173 0M378.47 161.33a3.087 3.087 0 0 1-6.173 0 3.086 3.086 0 1 1 6.174 0" mask="url(#h)"/>
        <path fill="#9198A8" d="M876.943 156.324h-118.92c-7.609 0-13.778 6.167-13.778 13.8v94.52H890.76v-94.52c0-7.633-6.203-13.8-13.817-13.8" mask="url(#h)"/>
        <path fill="#7F8694" d="M876.943 156.324h-59.44v108.32h73.257v-94.52c0-7.633-6.203-13.8-13.817-13.8" mask="url(#h)"/>
        <path fill="#E8EAF0" d="M758.84 231.805h117.327v-60.887H758.84z" mask="url(#h)"/>
        <path fill="#2D3E50" d="M769.308 283.458c0 2.753-2.222 4.983-4.942 4.983h-1.954c-2.735 0-4.963-2.23-4.963-4.983v-10.717c0-2.75 2.228-4.98 4.963-4.98h1.954c2.72 0 4.942 2.23 4.942 4.98v10.717zM877.558 283.458c0 2.753-2.214 4.983-4.938 4.983h-1.954c-2.735 0-4.966-2.23-4.966-4.983v-10.717c0-2.75 2.23-4.98 4.966-4.98h1.954c2.724 0 4.938 2.23 4.938 4.98v10.717z" mask="url(#h)"/>
        <path fill="#E8EAF0" d="M891.64 278.1H743.353c-3.122 0-5.65-2.533-5.65-5.667v-2.131a5.648 5.648 0 0 1 5.65-5.657H891.64c3.12 0 5.666 2.526 5.666 5.657v2.13a5.67 5.67 0 0 1-5.666 5.669" mask="url(#h)"/>
        <path fill="#D3D8E3" d="M891.64 264.645h-74.138V278.1h74.138a5.67 5.67 0 0 0 5.666-5.668v-2.131c0-3.131-2.545-5.657-5.666-5.657M817.502 231.805h58.665v-60.887h-58.665z" mask="url(#h)"/>
        <path fill="#9198A8" d="M868.86 214.608a.794.794 0 0 1-.625-.303c-12.378-15.628-30.87-24.592-50.729-24.592-19.86 0-38.349 8.962-50.73 24.59a.798.798 0 1 1-1.25-.993c12.683-16.01 31.63-25.193 51.98-25.193 20.35 0 39.295 9.184 51.981 25.196a.798.798 0 0 1-.627 1.295" mask="url(#h)"/>
        <path fill="#2D3E50" d="M817.506 212.105l-2.49 5.709h4.979l-2.49-5.71zm3.506 8.066h-7.013l-1.147 2.529h-2.74l6.014-13.41h2.759l6.016 13.41h-2.76l-1.13-2.53z" mask="url(#h)"/>
        <path fill="#9198A8" d="M785.275 196.93c.293-.16.596-.307.893-.463l-3.474-6.491a.49.49 0 0 0-.393-.264.506.506 0 0 0-.53.357.48.48 0 0 0 .04.38l3.464 6.48zM779.628 200.383c.277-.19.562-.37.843-.552l-4.094-6.125a.504.504 0 0 0-.837.559l4.088 6.118zM774.349 204.367c.256-.214.519-.422.78-.635l-4.673-5.694a.505.505 0 0 0-.78.638l4.673 5.691zM811.401 189.028l-.72-7.33c-.027-.232-.204-.418-.526-.449-.009-.004-.02-.004-.028-.004a.506.506 0 0 0-.453.55l.722 7.32c.333-.034.67-.058 1.005-.087M768.977 209.382a65.665 65.665 0 0 1 1.75-1.751l-5.222-5.22a1.235 1.235 0 1 0-1.748 1.749l5.22 5.222zM804.849 189.944l-1.435-7.218c-.046-.229-.243-.399-.567-.399h-.025a.507.507 0 0 0-.4.593l1.435 7.204c.328-.069.662-.118.992-.18M817.506 188.74c.414 0 .823.024 1.236.03v-7.384a1.24 1.24 0 0 0-1.236-1.237c-.683 0-1.235.556-1.235 1.237v7.384c.41-.006.82-.03 1.235-.03M797.448 191.774c.32-.1.65-.181.971-.276l-2.137-7.036c-.068-.224-.28-.374-.6-.343-.008.004-.02.004-.03.004a.505.505 0 0 0-.334.63l2.13 7.02zM790.563 194.354c.755-.33 1.52-.64 2.29-.942l-2.823-6.811a1.234 1.234 0 0 0-1.615-.666c-.631.26-.93.982-.668 1.614l2.817 6.805zM849.733 196.929l3.46-6.475a.506.506 0 0 0-.207-.683.498.498 0 0 0-.68.203l-3.469 6.49c.296.156.601.304.896.465M866.027 209.378l5.222-5.221a1.238 1.238 0 0 0-1.75-1.749l-5.219 5.22a65.515 65.515 0 0 1 1.747 1.75M844.442 194.35l2.816-6.801a1.236 1.236 0 0 0-2.283-.948l-2.82 6.81c.771.302 1.531.61 2.287.94M831.151 190.124l1.433-7.204c.051-.272-.125-.54-.496-.604a.507.507 0 0 0-.494.408l-1.434 7.218c.33.063.664.112.991.182M837.56 191.774l2.13-7.024c.079-.268-.07-.55-.433-.651a.514.514 0 0 0-.533.36l-2.135 7.037c.322.094.65.175.97.278M860.657 204.365l4.668-5.687a.511.511 0 0 0-.069-.712.5.5 0 0 0-.707.069l-4.674 5.694c.262.212.524.421.782.636M855.376 200.379l4.084-6.111a.508.508 0 0 0-.417-.788.5.5 0 0 0-.418.223l-4.091 6.122c.28.184.565.366.842.554M824.61 189.115l.723-7.32c.025-.278-.178-.526-.552-.553a.5.5 0 0 0-.449.453l-.724 7.333c.334.03.67.053 1.001.087" mask="url(#h)"/>
        <path fill="#2D3E50" d="M800.563 231.805l-23.068-24.77c-2.428-2.602-2.735-2.354-.686.554l17.058 24.216h6.697z" mask="url(#h)"/>
        <path fill="#9198A8" d="M867.627 228.34h-22.964a1.232 1.232 0 0 1-1.228-1.233v-.115c0-.68.551-1.23 1.228-1.23h22.964a1.23 1.23 0 0 1 1.233 1.23v.115c0 .68-.552 1.233-1.233 1.233M867.627 223.815h-13.38a1.233 1.233 0 0 1-1.229-1.233v-.115c0-.68.552-1.23 1.229-1.23h13.38a1.23 1.23 0 0 1 1.233 1.23v.114c0 .681-.552 1.234-1.233 1.234" mask="url(#h)"/>
        <path fill="#4D6073" d="M820.342 240.17a9.423 9.423 0 0 0-12.261 8.99c0 .426.029.849.08 1.26.618 4.61 4.566 8.169 9.345 8.169 5.2 0 9.42-4.223 9.42-9.428 0-4.218-2.77-7.784-6.584-8.99" mask="url(#h)"/>
        <path fill="#2D3E50" d="M826.927 249.161c0-4.218-2.771-7.784-6.585-8.99a9.446 9.446 0 0 0-2.836-.435v18.853c5.2 0 9.42-4.223 9.42-9.428" mask="url(#h)"/>
        <path fill="#D3D8E3" d="M411.414 256.733h-86.961c-7.635 0-13.823 6.188-13.823 13.818 0 7.634 6.188 13.822 13.823 13.822h86.96v-27.64z" mask="url(#h)"/>
        <path fill="#E8EAF0" d="M324.453 284.373h86.96v-13.82H310.63c0 7.632 6.188 13.82 13.823 13.82" mask="url(#h)"/>
        <path fill="#1CBEC2" d="M411.414 288.298h-86.961c-9.787 0-17.747-7.962-17.747-17.746 0-9.782 7.96-17.744 17.747-17.744h86.96a3.922 3.922 0 0 1 3.92 3.925 3.92 3.92 0 0 1-3.92 3.924h-86.96c-5.46 0-9.9 4.438-9.9 9.895 0 5.458 4.44 9.897 9.9 9.897h86.96a3.92 3.92 0 0 1 3.92 3.924 3.922 3.922 0 0 1-3.92 3.925" mask="url(#h)"/>
        <path fill="#0DA3A6" d="M324.453 288.298h86.96a3.922 3.922 0 0 0 3.92-3.925 3.92 3.92 0 0 0-3.92-3.924h-86.96c-5.46 0-9.9-4.44-9.9-9.897h-7.848c0 9.784 7.96 17.746 17.748 17.746" mask="url(#h)"/>
        <path fill="#D3D8E3" d="M395.716 221.245h-79.112c-7.63 0-13.82 6.187-13.82 13.82 0 7.632 6.19 13.821 13.82 13.821h79.112v-27.64z" mask="url(#h)"/>
        <path fill="#E8EAF0" d="M316.604 248.886h79.112v-13.821h-92.932c0 7.633 6.189 13.82 13.82 13.82" mask="url(#h)"/>
        <path fill="#FEC107" d="M395.716 252.808h-79.112c-9.783 0-17.74-7.96-17.74-17.743 0-9.785 7.957-17.742 17.74-17.742h79.112a3.921 3.921 0 1 1 0 7.843h-79.112c-5.457 0-9.899 4.443-9.899 9.899 0 5.458 4.442 9.898 9.9 9.898h79.111a3.92 3.92 0 0 1 3.924 3.923 3.92 3.92 0 0 1-3.924 3.922" mask="url(#h)"/>
        <path fill="#FF9801" d="M316.604 252.808h79.112a3.922 3.922 0 1 0 0-7.845h-79.112c-5.457 0-9.899-4.44-9.899-9.898h-7.841c0 9.784 7.957 17.743 17.74 17.743" mask="url(#h)"/>
        <path fill="#D3D8E3" d="M410.238 185.758h-86.965c-7.63 0-13.819 6.187-13.819 13.82s6.188 13.819 13.82 13.819h86.964v-27.64z" mask="url(#h)"/>
        <path fill="#E8EAF0" d="M323.273 213.397h86.965V199.58H309.454c0 7.63 6.188 13.816 13.82 13.816" mask="url(#h)"/>
        <path fill="#F44336" d="M410.238 217.322h-86.965c-9.783 0-17.743-7.96-17.743-17.743 0-9.784 7.96-17.746 17.743-17.746h86.965a3.925 3.925 0 0 1 0 7.848h-86.965c-5.456 0-9.895 4.437-9.895 9.898 0 5.456 4.44 9.894 9.895 9.894h86.965a3.925 3.925 0 0 1 0 7.85" mask="url(#h)"/>
        <path fill="#D61818" d="M323.273 217.322h86.965a3.925 3.925 0 0 0 0-7.849h-86.965c-5.457 0-9.895-4.438-9.895-9.894h-7.849c0 9.782 7.961 17.743 17.744 17.743M347.187 257.649l-7.815-4.814-7.819 4.814v-22.584h15.634z" mask="url(#h)"/>
        <path fill="#2D3E50" d="M154.58 264.587h30.529v-26.805H154.58z" mask="url(#h)"/>
        <path fill="#7F8694" d="M136.03 276.587l-.011-7.851c0-4.552 3.689-8.231 8.22-8.231l51.2-.023c4.53 0 8.22 3.702 8.22 8.232v7.873h-67.63z" mask="url(#h)"/>
        <path fill="#2D3E50" d="M112.589 288.298v-7.852c0-4.552 3.679-8.232 8.21-8.232h98.069c4.542 0 8.232 3.68 8.232 8.21v7.874H112.589zM169.912 93.438c-34.746 0-63.01 28.264-63.01 63.01 0 34.745 28.264 63.009 63.01 63.009 34.746 0 56.493 6.976 56.493 6.976s-35.116 19.986-56.493 19.986c-49.617 0-89.982-40.354-89.982-89.971 0-39.771 25.94-73.597 61.786-85.463 8.872-2.94 28.196 22.453 28.196 22.453" mask="url(#h)"/>
        <path fill="#2D3E50" d="M169.912 219.456v4.935c0 4.553 3.679 8.232 8.21 8.232h54.72c4.53 0 8.22-3.679 8.22-8.21v-4.935l-71.15-.022zM184.303 178.259l8.596-3.74a6.889 6.889 0 0 0 3.567-9.068l-2.762-6.343a6.892 6.892 0 0 0-9.07-3.567l-8.606 3.74a6.886 6.886 0 0 0-3.564 9.068l2.768 6.345a6.893 6.893 0 0 0 9.071 3.565M125.355 42.995l8.609-3.755a6.89 6.89 0 0 0 3.564-9.07l-2.761-6.345a6.893 6.893 0 0 0-9.072-3.566l-8.603 3.742a6.893 6.893 0 0 0-3.573 9.068l2.768 6.362a6.886 6.886 0 0 0 9.067 3.564" mask="url(#h)"/>
        <path fill="#7F8694" d="M184.01 165.846l-11.225 4.895a6.89 6.89 0 0 1-9.07-3.563L112.068 48.634a6.892 6.892 0 0 1 3.564-9.071l11.225-4.895 57.154 131.178z" mask="url(#h)"/>
        <path fill="#9198A8" d="M147.148 33.336l51.65 118.544a6.892 6.892 0 0 1-3.564 9.07l-11.225 4.896-57.154-131.178 11.224-4.894a6.89 6.89 0 0 1 9.07 3.562" mask="url(#h)"/>
        <path fill="#2D3E50" d="M160.123 161.947l37.288-16.25a6.892 6.892 0 0 0 3.564-9.07l-2.293-5.267a6.89 6.89 0 0 0-9.066-3.567l-37.3 16.236a6.89 6.89 0 0 0-3.566 9.066l2.307 5.29a6.885 6.885 0 0 0 9.066 3.562M128.415 113.984c11.922 0 21.612-9.69 21.612-21.623 0-11.91-9.69-21.6-21.612-21.6-11.922 0-21.613 9.69-21.613 21.6 0 11.933 9.69 21.623 21.613 21.623" mask="url(#h)"/>
        <path fill="#7F8694" d="M115.516 92.361c0 7.134 5.776 12.898 12.898 12.898s12.897-5.764 12.897-12.898c0-7.11-5.775-12.897-12.897-12.897s-12.898 5.787-12.898 12.897" mask="url(#h)"/>
        <path fill="#FFF" d="M184.635 138.105a5.166 5.166 0 0 0 5.168 5.166 5.167 5.167 0 1 0 0-10.334 5.169 5.169 0 0 0-5.168 5.168" mask="url(#h)"/>
        <path fill="#E8EAF0" d="M586.197 192.898a2.603 2.603 0 0 0-2.383 1.56H520.04c-.402-.917-17.948.08-17.948.08 10.81 0 12.966 7.873 12.966 17.886v67.633c0 4.541 3.694 8.24 8.235 8.24h57.267c4.542 0 8.237-3.699 8.237-8.24v-84.559a2.6 2.6 0 0 0-2.599-2.6" mask="url(#h)"/>
        <path fill="#FEC107" d="M523.292 283.5a3.443 3.443 0 0 1-3.438-3.442v-44.823h64.147v44.823a3.445 3.445 0 0 1-3.441 3.441h-57.268z" mask="url(#h)"/>
        <path fill="#D3D8E3" d="M586.197 192.898a2.603 2.603 0 0 0-2.383 1.56h-31.888v93.84h28.633c4.542 0 8.237-3.7 8.237-8.24v-84.56a2.6 2.6 0 0 0-2.599-2.6" mask="url(#h)"/>
        <path fill="#FF9801" d="M584.001 235.235h-32.074V283.5h28.633a3.446 3.446 0 0 0 3.441-3.442v-44.822z" mask="url(#h)"/>
        <path fill="#E8EAF0" d="M588.796 194.537H502.09c-2.401 0-4.344-1.952-4.344-4.364v-.1a4.344 4.344 0 0 1 4.344-4.353h86.705a4.354 4.354 0 0 1 4.357 4.353v.1a4.362 4.362 0 0 1-4.357 4.364" mask="url(#h)"/>
        <path fill="#C0C3CF" d="M502.09 194.537c6.386 0 9.568 2.853 11.44 7.074h75.266v-6.113c0-.34-.07-.664-.188-.96H502.09z" mask="url(#h)"/>
        <path fill="#D3D8E3" d="M588.796 185.72h-36.87v8.817h36.87a4.362 4.362 0 0 0 4.357-4.364v-.1a4.354 4.354 0 0 0-4.357-4.353" mask="url(#h)"/>
        <path fill="#FFF" d="M532.201 242.526a4.763 4.763 0 0 1-9.523 0 4.761 4.761 0 1 1 9.523 0M533.794 216.03a6.354 6.354 0 1 1-12.708 0 6.354 6.354 0 1 1 12.708 0" mask="url(#h)"/>
        <path fill="#7F8694" d="M577.392 218.207a1.824 1.824 0 0 1 0-3.646H584v3.646h-6.61zM577.392 231.104a1.824 1.824 0 0 1-1.822-1.824c0-1.003.817-1.821 1.822-1.821H584v3.645h-6.61z" mask="url(#h)"/>
        <path fill="#E8EAF0" d="M577.392 256.897a1.824 1.824 0 0 1 0-3.647H584v3.647h-6.61zM577.392 244.001a1.824 1.824 0 0 1 0-3.647H584v3.647h-6.61zM577.392 269.795a1.824 1.824 0 0 1 0-3.646H584v3.646h-6.61z" mask="url(#h)"/>
        <path fill="#E8EAF0" d="M612.543 138.463c-.794 0-1.477.479-1.774 1.165h-23.641c-.298-.686-13.376.059-13.376.059 8.057 0 9.664 5.87 9.664 13.332V274.95h31.066V140.403a1.94 1.94 0 0 0-1.939-1.94" mask="url(#h)"/>
        <path fill="#D3D8E3" d="M612.543 138.463c-.794 0-1.477.479-1.774 1.165h-11.82V274.95h15.533V140.403a1.94 1.94 0 0 0-1.939-1.94" mask="url(#h)"/>
        <path fill="#E8EAF0" d="M614.482 139.687h-40.73a3.245 3.245 0 0 1-3.24-3.253v-.074a3.24 3.24 0 0 1 3.24-3.244h40.73a3.245 3.245 0 0 1 3.245 3.244v.074a3.25 3.25 0 0 1-3.245 3.253" mask="url(#h)"/>
        <path fill="#C0C3CF" d="M573.752 139.687c4.759 0 7.131 2.126 8.527 5.272h32.203v-4.555c0-.254-.053-.495-.142-.717h-40.588z" mask="url(#h)"/>
        <path fill="#D3D8E3" d="M614.482 133.115H598.95v6.571h15.533a3.25 3.25 0 0 0 3.245-3.253v-.074a3.245 3.245 0 0 0-3.245-3.244" mask="url(#h)"/>
        <path fill="#E8EAF0" d="M598.95 274.95h-15.526c0 3.387-3.77 6.777-8.529 6.777h24.054v-6.777z" mask="url(#h)"/>
        <path fill="#D3D8E3" d="M598.95 274.95h15.523c0 3.387 3.768 6.777 8.527 6.777h-24.05v-6.777z" mask="url(#h)"/>
        <path fill="#E8EAF0" d="M623.077 288.298h-48.265a3.245 3.245 0 0 1-3.238-3.253v-.074a3.239 3.239 0 0 1 3.238-3.243h48.265a3.245 3.245 0 0 1 3.247 3.243v.074a3.251 3.251 0 0 1-3.247 3.253" mask="url(#h)"/>
        <path fill="#D3D8E3" d="M623.077 281.728H598.95v6.57h24.128a3.251 3.251 0 0 0 3.247-3.253v-.074a3.245 3.245 0 0 0-3.247-3.243" mask="url(#h)"/>
        <path fill="#C0C3CF" d="M614.725 276.454H583.17c-.904 2.817-4.227 5.273-8.275 5.273H623c-4.047 0-7.371-2.456-8.275-5.273" mask="url(#h)"/>
        <path fill="#1CBEC2" d="M588.414 200.656v59.695c0 5.816 4.715 10.533 10.535 10.533 5.818 0 10.532-4.717 10.532-10.533v-59.695h-21.067z" mask="url(#h)"/>
        <path fill="#0DA3A6" d="M598.95 270.884c5.816 0 10.531-4.717 10.531-10.532v-59.696H598.95v70.228z" mask="url(#h)"/>
        <path fill="#7F8694" d="M602.872 196.006a1.824 1.824 0 0 1 0-3.647h6.61v3.647h-6.61z" mask="url(#h)"/>
        <path fill="#E8EAF0" d="M602.872 208.902a1.824 1.824 0 0 1-1.82-1.824c0-1.003.816-1.82 1.82-1.82h6.61v3.644h-6.61zM602.872 234.695a1.823 1.823 0 0 1 0-3.644h6.61v3.644h-6.61zM602.872 221.8a1.824 1.824 0 0 1 0-3.646h6.61v3.646h-6.61zM602.872 247.594a1.824 1.824 0 0 1 0-3.646h6.61v3.646h-6.61z" mask="url(#h)"/>
        <path fill="#7F8694" d="M602.872 183.111a1.824 1.824 0 0 1 0-3.647h6.61v3.647h-6.61zM602.872 170.212a1.824 1.824 0 0 1-1.82-1.823c0-1.002.816-1.82 1.82-1.82h6.61v3.643h-6.61z" mask="url(#h)"/>
        <path fill="#FFF" d="M595.166 186.049a4.762 4.762 0 1 1-9.524 0 4.763 4.763 0 0 1 9.524 0" mask="url(#h)"/>
        <path fill="#E8EAF0" d="M688.615 273.67h-40.403c-6.42 0-11.645-5.225-11.645-11.646v-19.278c0-6.423 5.225-11.646 11.645-11.646h4.235v-3.46a3.041 3.041 0 0 1 3.042-3.041h25.852a3.038 3.038 0 0 1 3.038 3.041v3.46h4.236c6.424 0 11.648 5.223 11.648 11.646v19.278c0 6.421-5.224 11.646-11.648 11.646" mask="url(#h)"/>
        <path fill="#D3D8E3" d="M688.615 231.1h-4.236v-3.46a3.038 3.038 0 0 0-3.038-3.041h-12.928v49.07h20.202c6.424 0 11.648-5.223 11.648-11.644v-19.28c0-6.421-5.224-11.645-11.648-11.645" mask="url(#h)"/>
        <path fill="#1CBEC2" d="M640.827 250.848v11.177c0 4.073 3.313 7.387 7.385 7.387h40.403c4.075 0 7.388-3.314 7.388-7.387v-11.177h-55.176z" mask="url(#h)"/>
        <path fill="#0DA3A6" d="M668.413 269.412h20.202c4.075 0 7.388-3.314 7.388-7.388v-11.176h-27.59v18.564z" mask="url(#h)"/>
        <path fill="#FFF" d="M650.24 240.573a3.772 3.772 0 1 1-7.544-.001 3.772 3.772 0 0 1 7.543.001M649.295 256.692a2.826 2.826 0 0 1-2.83 2.824 2.826 2.826 0 1 1 2.829-2.824" mask="url(#h)"/>
        <path fill="#FF9801" d="M668.418 183.229c-3.741 0-13.354 12.554-10.578 26.378 1.062 5.259 3.246 11.02 3.382 14.992h14.387c.138-3.972 2.323-9.733 3.381-14.992 2.782-13.824-6.837-26.378-10.572-26.378" mask="url(#h)"/>
        <path fill="#FEC107" d="M668.418 224.599v-41.37c-3.741 0-13.354 12.554-10.578 26.378 1.062 5.259 3.246 11.02 3.382 14.992h7.196z" mask="url(#h)"/>
        <path fill="#FF6F00" d="M668.418 189.338c-2.564 2.76-7.086 10.496-5.333 19.214.377 1.86.937 3.898 1.473 5.87.454 1.654.899 3.269 1.251 4.83h5.213c.355-1.561.796-3.176 1.25-4.83.542-1.972 1.1-4.01 1.473-5.87 1.753-8.718-2.768-16.455-5.327-19.214" mask="url(#h)"/>
        <path fill="#2D3E50" d="M668.466 215.843a2.489 2.489 0 0 0-2.49 2.488v40.53a5.484 5.484 0 0 1-5.48 5.477h-.66v.004a2.487 2.487 0 0 0-2.49 2.49 2.487 2.487 0 0 0 2.49 2.489h.66c5.77 0 10.46-4.693 10.46-10.46v-40.53a2.49 2.49 0 0 0-2.49-2.488" mask="url(#h)"/>
        <path fill="#E8EAF0" d="M683.672 109.32V73.797H652.287v35.521c-9.383 5.427-15.708 15.57-15.708 27.191 0 13.056 7.973 24.251 19.31 28.99a31.349 31.349 0 0 0 12.09 2.41c17.345 0 31.402-14.057 31.402-31.4 0-11.62-6.321-21.764-15.71-27.19" mask="url(#h)"/>
        <path fill="#E8EAF0" d="M683.672 73.9h-31.385a3.162 3.162 0 0 1-3.156-3.17v-1.189a3.158 3.158 0 0 1 3.156-3.162h31.385a3.158 3.158 0 0 1 3.16 3.162v1.19a3.162 3.162 0 0 1-3.16 3.169" mask="url(#h)"/>
        <path fill="#D3D8E3" d="M683.672 109.32V73.797H667.98v94.112c17.344 0 31.4-14.057 31.4-31.4 0-11.62-6.32-21.764-15.708-27.19" mask="url(#h)"/>
        <path fill="#D3D8E3" d="M683.672 66.379H667.98V73.9h15.692a3.162 3.162 0 0 0 3.16-3.169v-1.19a3.157 3.157 0 0 0-3.16-3.162" mask="url(#h)"/>
        <path fill="#C0C3CF" d="M652.287 78.945h31.385v-5.146h-31.385z" mask="url(#h)"/>
        <path fill="#FEC107" d="M641.584 136.51c0 14.56 11.836 26.402 26.396 26.402 14.559 0 26.4-11.842 26.4-26.401 0-1.833-.188-3.625-.548-5.353h-51.704a26.306 26.306 0 0 0-.544 5.353" mask="url(#h)"/>
        <path fill="#FF9801" d="M667.98 131.158v31.754c14.56 0 26.4-11.843 26.4-26.4 0-1.834-.188-3.626-.548-5.354H667.98z" mask="url(#h)"/>
        <path fill="#FFF" d="M655.093 120.058a3.784 3.784 0 1 1-7.568.004 3.784 3.784 0 0 1 7.568-.004M649.85 136.64a2.836 2.836 0 1 1-5.668 0 2.836 2.836 0 0 1 5.669 0" mask="url(#h)"/>
        <path fill="#2D3E50" d="M762.124 271.873h10.467V13.482h-10.467z" mask="url(#h)"/>
        <path fill="#7F8694" d="M798.169 277.626l.013-7.155a7.5 7.5 0 0 0-7.495-7.502l-46.66-.021c-4.13 0-7.493 3.372-7.493 7.502v7.176h61.635z" mask="url(#h)"/>
        <path fill="#2D3E50" d="M819.532 288.298v-7.156c0-4.15-3.354-7.502-7.482-7.502H620.09c-4.138 0-7.503 3.352-7.503 7.482v7.176h206.945z" mask="url(#h)"/>
        <path fill="#7F8694" d="M779.111 11.755c0 6.5-5.266 11.754-11.754 11.754-6.493 0-11.755-5.253-11.755-11.754 0-6.48 5.262-11.755 11.755-11.755 6.488 0 11.754 5.275 11.754 11.755" mask="url(#h)"/>
        <path fill="#2D3E50" d="M656.613 99.124h111.668V88.657H656.613z" mask="url(#h)"/>
        <path fill="#2D3E50" d="M767.357 113.587c-10.868 0-19.698-8.831-19.698-19.706 0-10.856 8.83-19.688 19.698-19.688 10.863 0 19.694 8.832 19.694 19.688 0 10.875-8.83 19.706-19.694 19.706" mask="url(#h)"/>
        <path fill="#7F8694" d="M779.111 93.88c0 6.5-5.266 11.755-11.754 11.755-6.493 0-11.755-5.254-11.755-11.754 0-6.481 5.262-11.756 11.755-11.756 6.488 0 11.754 5.275 11.754 11.756" mask="url(#h)"/>
        <path fill="#F44336" d="M685.021 100.687h-34.1c-3.582 0-6.479-2.907-6.479-6.504v-.6a6.478 6.478 0 0 1 6.48-6.49h34.1c3.58 0 6.495 2.9 6.495 6.49v.6a6.501 6.501 0 0 1-6.496 6.504" mask="url(#h)"/>
    </g>
</svg>
