<svg xmlns="http://www.w3.org/2000/svg" xmlns:xlink="http://www.w3.org/1999/xlink" width="317" height="243" viewBox="0 0 317 243">
    <defs>
        <path id="a" d="M83.757.497H.44v33.276h83.317V.497z"/>
        <path id="c" d="M42.903.497H.112v33.23h42.79V.497z"/>
        <path id="e" d="M0 243h316V0H0z"/>
    </defs>
    <g fill="none" fill-rule="evenodd">
        <g transform="translate(81)">
            <mask id="b" fill="#fff">
                <use xlink:href="#a"/>
            </mask>
            <path fill="#CFD4DF" d="M83.757 33.773h-6.273V11.148c0-2.638-1.06-4.215-1.481-4.4l-34.36.019L.44 6.722.447.497l75.67.046c4.358 0 7.64 4.56 7.64 10.605v22.625z" mask="url(#b)"/>
        </g>
        <path fill="#424141" d="M316.222 219.522c0 4.65-5.793 8.418-12.938 8.418H12.95C5.8 227.94 0 224.173 0 219.522c0-4.645 5.799-8.414 12.95-8.414h290.334c7.145 0 12.938 3.77 12.938 8.414"/>
        <path fill="#424141" d="M108 212.841c0 2.847-2.234 5.159-4.998 5.159-2.761 0-5.002-2.312-5.002-5.159V35.159c0-2.851 2.24-5.159 5.002-5.159 2.764 0 4.998 2.308 4.998 5.159v177.682z"/>
        <g transform="translate(167)">
            <mask id="d" fill="#fff">
                <use xlink:href="#c"/>
            </mask>
            <path fill="#CFD4DF" d="M6.487 33.727H.112V11.103C.112 5.058 3.449.497 7.875.497h35.028v6.225H7.875c-.312.165-1.388 1.743-1.388 4.38v22.625z" mask="url(#d)"/>
        </g>
        <path fill="#CFD4DF" d="M216 118h-6.3V10.652c0-2.838-1.343-4.4-1.784-4.4H193V0h14.916C212.446 0 216 4.68 216 10.652V118z"/>
        <path fill="#CFD4DF" d="M233 141h-18.408c-3.292 0-5.592-3.449-5.592-8.388V117h6.391v15.612c0 .883.137 1.532.268 1.945H233V141z"/>
        <path fill="#CFD4DF" d="M240.172 142c-.083 0-.165-.003-.254-.009l-9.918-.392.246-6.373 9.926.392c-.047-.005.072-.132.072-.408l.466-28.21 6.29.108-.467 28.202c-.026 1.89-.795 3.693-2.105 4.95-1.174 1.128-2.678 1.74-4.256 1.74"/>
        <path fill="#CFD4DF" d="M246.262 126l-6.262-.118.514-28.21c.037-1.89.807-3.693 2.113-4.946 1.234-1.182 2.797-1.81 4.496-1.717l9.877.443-.276 6.375-9.875-.442c.05.002-.067.132-.074.408L246.262 126z"/>
        <path fill="#CFD4DF" d="M271.853 128l-6.568-.03.148-29.49L255 98.3l.154-6.301 10.356.234c1.834.04 3.582.784 4.802 2.037 1.164 1.202 1.766 2.755 1.68 4.373L271.853 128z"/>
        <path fill="#BAE4EA" d="M307 183c0 20.435-16.785 37-37.503 37C248.785 220 232 203.435 232 183c0-20.436 16.785-37 37.497-37C290.215 146 307 162.564 307 183"/>
        <mask id="f" fill="#fff">
            <use xlink:href="#e"/>
        </mask>
        <path fill="#BAE4EA" d="M255 173h27v-43h-27z" mask="url(#f)"/>
        <path fill="#8AD1D5" d="M285 129.5c0 1.933-1.496 3.5-3.34 3.5h-26.321c-1.85 0-3.339-1.567-3.339-3.5 0-1.934 1.488-3.5 3.339-3.5h26.32c1.845 0 3.341 1.566 3.341 3.5" mask="url(#f)"/>
        <path fill="#90D35B" d="M268.998 215c17.27 0 31.453-13.177 33.002-30h-66c1.549 16.823 15.725 30 32.998 30" mask="url(#f)"/>
        <path fill="#7CBA48" d="M276 172.998a2.999 2.999 0 1 1-6 0 3 3 0 0 1 6 0" mask="url(#f)"/>
        <path fill="#90D35B" d="M275 187.5a6.5 6.5 0 1 1-6.5-6.5c3.593 0 6.5 2.91 6.5 6.5M302 185.5c0 4.137-3.361 7.5-7.495 7.5a7.5 7.5 0 1 1 0-15 7.5 7.5 0 0 1 7.495 7.5M252 189.498a6.497 6.497 0 0 1-6.493 6.502 6.506 6.506 0 0 1-6.507-6.502 6.5 6.5 0 0 1 6.507-6.498 6.492 6.492 0 0 1 6.493 6.498" mask="url(#f)"/>
        <path fill="#7CBA48" d="M287 197.498a6.5 6.5 0 1 1-6.504-6.498 6.503 6.503 0 0 1 6.504 6.498M260 185.501a4.5 4.5 0 1 1-9-.002 4.5 4.5 0 0 1 9 .002" mask="url(#f)"/>
        <path fill="#FFF" d="M256 168.502a8.5 8.5 0 1 1-17-.005 8.5 8.5 0 0 1 17 .005M261 155.501a4.5 4.5 0 1 1-9.001-.004 4.5 4.5 0 0 1 9.001.004" mask="url(#f)"/>
        <path fill="#BAE4EA" d="M191 88.26c0 14.501-11.648 37.74-26 37.74-14.365 0-26-23.239-26-37.74C139 73.76 150.635 62 165 62c14.352 0 26 11.76 26 26.26" mask="url(#f)"/>
        <path fill="#BAE4EA" d="M157 70h17V36h-17z" mask="url(#f)"/>
        <path fill="#8AD1D5" d="M177 36c0 1.66-1.14 3-2.535 3h-19.932c-1.396 0-2.533-1.34-2.533-3s1.137-3 2.533-3h19.932c1.395 0 2.535 1.34 2.535 3" mask="url(#f)"/>
        <path fill="#0193EA" d="M165 120c10.863 0 19.918-15.601 22-28h-44c2.079 12.399 11.138 28 22 28" mask="url(#f)"/>
        <path fill="#0193EA" d="M181 92.5c0 2.484-2.018 4.5-4.497 4.5A4.5 4.5 0 1 1 181 92.5M160 92.999a7 7 0 0 1-6.994 7.001 7 7 0 1 1 0-14c3.86 0 6.994 3.13 6.994 6.999" mask="url(#f)"/>
        <path fill="#047AB5" d="M172 82.998A2.996 2.996 0 0 1 169.001 86 3 3 0 1 1 172 82.998M166 74.504A2.497 2.497 0 0 1 163.503 77 2.502 2.502 0 0 1 161 74.504a2.5 2.5 0 1 1 5 0M169 100.502a4.502 4.502 0 0 1-4.5 4.498 4.5 4.5 0 1 1 4.5-4.498M172 112.998a2.995 2.995 0 0 1-2.994 3.002 3.003 3.003 0 0 1-3.006-3.002 3.003 3.003 0 0 1 3.006-2.998 2.995 2.995 0 0 1 2.994 2.998" mask="url(#f)"/>
        <path fill="#424141" d="M191 53.496c0 1.384-1.192 2.504-2.666 2.504H76.672C75.192 56 74 54.88 74 53.496 74 52.12 75.192 51 76.672 51h111.662c1.474 0 2.666 1.119 2.666 2.496" mask="url(#f)"/>
        <path fill="#CFD4DF" d="M73.255 103H67V10.726C67 4.613 70.274 0 74.616 0H109v6.296H74.616c-.303.167-1.36 1.762-1.36 4.43V103z" mask="url(#f)"/>
        <path fill="#CFD4DF" d="M30.18 103H24V70.665C24 64.783 27.932 60 32.76 60H71v6.261H32.76c-1.218 0-2.58 1.885-2.58 4.404V103z" mask="url(#f)"/>
        <path fill="#BAE4EA" d="M81 181.944A7.06 7.06 0 0 1 73.94 189h-9.882A7.06 7.06 0 0 1 57 181.944v-72.887A7.059 7.059 0 0 1 64.058 102h9.883c3.897 0 7.059 3.16 7.059 7.057v72.887z" mask="url(#f)"/>
        <path fill="#FFBB1D" d="M59 143.02v37.838c0 3.394 2.5 6.142 5.59 6.142h7.82c3.084 0 5.59-2.748 5.59-6.142V143c-.06 0-.122.02-.182.02H59z" mask="url(#f)"/>
        <path fill="#8AD1D5" d="M84 105c0 1.658-1.319 3-2.94 3H57.94c-1.623 0-2.94-1.342-2.94-3 0-1.656 1.317-3 2.94-3h23.12c1.621 0 2.94 1.344 2.94 3" mask="url(#f)"/>
        <path fill="#FFBB1D" d="M77 143.001A3.002 3.002 0 0 1 74 146c-1.656 0-3-1.346-3-2.999a3.001 3.001 0 0 1 6 0M70 144.5a4.501 4.501 0 1 1-4.5-4.5c2.485 0 4.5 2.02 4.5 4.5" mask="url(#f)"/>
        <path fill="#E5A21C" d="M75 134a3 3 0 1 1-5.999 0A3 3 0 0 1 75 134M72 151.001a3 3 0 1 1-6-.002 3 3 0 0 1 6 .002M74 172.999A5.004 5.004 0 0 1 69 178c-2.757 0-5-2.241-5-5.001A5.003 5.003 0 0 1 69 168c2.758 0 5 2.24 5 4.999" mask="url(#f)"/>
        <path fill="#FFF" d="M66.157 160.536a4.01 4.01 0 0 1-.693 5.615 3.997 3.997 0 0 1-5.612-.688 3.992 3.992 0 0 1 .686-5.613 4.004 4.004 0 0 1 5.62.686M64.576 154.768c.68.869.525 2.127-.342 2.808a2.004 2.004 0 0 1-2.808-.34 2.002 2.002 0 1 1 3.15-2.468" mask="url(#f)"/>
        <path fill="#BAE4EA" d="M39 182.945A7.059 7.059 0 0 1 31.942 190h-9.884A7.058 7.058 0 0 1 15 182.945v-72.887A7.06 7.06 0 0 1 22.058 103h9.884A7.061 7.061 0 0 1 39 110.058v72.887z" mask="url(#f)"/>
        <path fill="#FFBB1D" d="M17 143.02v37.837c0 3.39 2.507 6.143 5.59 6.143h7.82c3.083 0 5.59-2.754 5.59-6.143V143c-.069.003-.13.02-.19.02H17z" mask="url(#f)"/>
        <path fill="#8AD1D5" d="M41 106c0 1.655-1.31 3-2.935 3H14.941c-1.63 0-2.941-1.345-2.941-3 0-1.657 1.312-3 2.941-3h23.124c1.624 0 2.935 1.343 2.935 3" mask="url(#f)"/>
        <path fill="#FFBB1D" d="M34 144.002a3 3 0 1 1-6-.003 3 3 0 0 1 6 .003M27 144.498A4.501 4.501 0 0 1 22.499 149 4.497 4.497 0 0 1 18 144.498a4.5 4.5 0 0 1 9 0" mask="url(#f)"/>
        <path fill="#E5A21C" d="M33 135a3 3 0 1 1-6 .001 3 3 0 0 1 6-.002M30 151.998a3 3 0 1 1-6 .005 3 3 0 0 1 6-.005M31 173.998a5 5 0 1 1-10 0 5 5 0 0 1 10 0" mask="url(#f)"/>
        <path fill="#FFF" d="M24.15 161.539a3.998 3.998 0 1 1-6.301 4.923 3.992 3.992 0 0 1 .692-5.612 3.988 3.988 0 0 1 5.608.689M22.578 155.768c.676.87.524 2.13-.343 2.806a1.996 1.996 0 0 1-2.808-.343 1.994 1.994 0 0 1 .343-2.806 2.002 2.002 0 0 1 2.808.343" mask="url(#f)"/>
        <path fill="#424141" d="M138 146.498c0 1.384-1.41 2.502-3.15 2.502H3.154C1.41 149 0 147.882 0 146.498 0 145.118 1.41 144 3.153 144H134.85c1.738 0 3.149 1.118 3.149 2.498M113 53.498c0 5.245-4.259 9.502-9.5 9.502-5.25 0-9.5-4.257-9.5-9.502A9.497 9.497 0 0 1 103.5 44c5.241 0 9.5 4.251 9.5 9.498" mask="url(#f)"/>
        <path fill="#424141" d="M113 145.5c0 5.25-4.259 9.5-9.5 9.5-5.25 0-9.5-4.25-9.5-9.5a9.5 9.5 0 1 1 19 0" mask="url(#f)"/>
        <path fill="#FFF" d="M157.856 81.14a6.503 6.503 0 0 1-5 7.714 6.49 6.49 0 0 1-7.71-4.997 6.492 6.492 0 0 1 4.995-7.711c3.506-.753 6.957 1.482 7.715 4.994M159.92 70.77a3.488 3.488 0 0 1-2.687 4.151 3.505 3.505 0 0 1-4.156-2.687 3.506 3.506 0 0 1 2.693-4.156c1.89-.404 3.748.8 4.15 2.692" mask="url(#f)"/>
        <path fill="#C4944B" d="M131 185h9v-7h-9zM153 185h9v-7h-9zM176 185h9v-7h-9zM199 185h9v-7h-9z" mask="url(#f)"/>
        <path fill="#BAE4EA" d="M144 229.943c0 2.242-1.845 4.057-4.117 4.057h-5.767c-2.274 0-4.116-1.815-4.116-4.057v-41.887c0-2.24 1.842-4.056 4.116-4.056h5.767c2.272 0 4.117 1.815 4.117 4.056v41.887z" mask="url(#f)"/>
        <path fill="#FFBB1D" d="M130 207.009v22.36c0 2.006 1.447 3.631 3.236 3.631h4.53c1.784 0 3.234-1.625 3.234-3.63V207c-.035 0-.07.009-.107.009H130z" mask="url(#f)"/>
        <path fill="#8AD1D5" d="M145 185.499c0 .828-.769 1.501-1.719 1.501h-13.558c-.953 0-1.723-.673-1.723-1.501 0-.827.77-1.499 1.723-1.499h13.558c.95 0 1.719.672 1.719 1.499" mask="url(#f)"/>
        <path fill="#FFBB1D" d="M141 207.5a1.501 1.501 0 0 1-3 0 1.501 1.501 0 0 1 3 0M137 208.998a3 3 0 1 1-6.001.003 3 3 0 0 1 6.001-.003" mask="url(#f)"/>
        <path fill="#E5A21C" d="M139 201.5a1.5 1.5 0 1 1-3.001-.001 1.5 1.5 0 0 1 3.001 0M137 212.5a1.5 1.5 0 1 1-3.001-.002 1.5 1.5 0 0 1 3.001.002M140 225c0 1.655-1.345 3-3 3s-3-1.345-3-3a3 3 0 0 1 6 0" mask="url(#f)"/>
        <path fill="#FFF" d="M134.47 217.962a2.498 2.498 0 0 1-.432 3.507 2.498 2.498 0 0 1-3.507-.43 2.498 2.498 0 1 1 3.94-3.077M132.787 214.384a.998.998 0 0 1-.171 1.403.998.998 0 0 1-1.404-.171.997.997 0 0 1 .173-1.403.997.997 0 0 1 1.402.171" mask="url(#f)"/>
        <path fill="#BAE4EA" d="M165 230.944c0 2.242-1.846 4.056-4.12 4.056h-5.764c-2.274 0-4.116-1.814-4.116-4.056v-41.887c0-2.24 1.842-4.057 4.116-4.057h5.764c2.274 0 4.12 1.817 4.12 4.057v41.887z" mask="url(#f)"/>
        <path fill="#0193EA" d="M153 207.012v22.358c0 2.005 1.448 3.63 3.237 3.63h4.528c1.785 0 3.235-1.625 3.235-3.63V207c-.036 0-.07.012-.11.012H153z" mask="url(#f)"/>
        <path fill="#8AD1D5" d="M166 185.499c0 .828-.768 1.501-1.72 1.501h-13.558c-.952 0-1.722-.673-1.722-1.501 0-.827.77-1.499 1.722-1.499h13.557c.953 0 1.721.672 1.721 1.499" mask="url(#f)"/>
        <path fill="#047AB5" d="M163 207.5c0 .828-.673 1.5-1.5 1.5s-1.5-.672-1.5-1.5.673-1.5 1.5-1.5 1.5.672 1.5 1.5" mask="url(#f)"/>
        <path fill="#0193EA" d="M159 208.998a3 3 0 1 1 0 0" mask="url(#f)"/>
        <path fill="#047AB5" d="M162 202.5a1.5 1.5 0 1 1-3.001.001A1.5 1.5 0 0 1 162 202.5M160 212.499a1.5 1.5 0 1 1-3.001.001A1.5 1.5 0 0 1 160 212.5M161 225a3 3 0 1 1-5.999-.001A3 3 0 0 1 161 225" mask="url(#f)"/>
        <path fill="#FFF" d="M157.47 217.96a2.498 2.498 0 0 1-.432 3.51 2.495 2.495 0 0 1-3.506-.432 2.493 2.493 0 0 1 .43-3.506 2.496 2.496 0 0 1 3.508.428M154.787 214.382a1 1 0 1 1-1.575 1.235 1 1 0 0 1 1.575-1.235" mask="url(#f)"/>
        <path fill="#BAE4EA" d="M188 229.946c0 2.239-1.84 4.054-4.115 4.054h-5.765c-2.275 0-4.12-1.815-4.12-4.054v-41.89c0-2.24 1.845-4.056 4.12-4.056h5.765c2.274 0 4.115 1.817 4.115 4.057v41.889z" mask="url(#f)"/>
        <path fill="#56192C" d="M175 207.011v22.36c0 2.005 1.45 3.629 3.235 3.629h4.528c1.789 0 3.237-1.624 3.237-3.629V207c-.04 0-.073.011-.11.011H175z" mask="url(#f)"/>
        <path fill="#8AD1D5" d="M189 185.499c0 .83-.772 1.501-1.724 1.501h-13.553c-.952 0-1.723-.671-1.723-1.501 0-.827.77-1.499 1.723-1.499h13.553c.952 0 1.724.672 1.724 1.499" mask="url(#f)"/>
        <path fill="#56192C" d="M185 207.5a1.501 1.501 0 0 1-3 0 1.501 1.501 0 0 1 3 0M182 208.997a3.004 3.004 0 0 1-3.001 3.003 3 3 0 1 1 3.001-3.003" mask="url(#f)"/>
        <path fill="#3F1423" d="M184 201.5a1.5 1.5 0 1 1-3.001-.001 1.5 1.5 0 0 1 3.001.001M182 212.499a1.501 1.501 0 0 1-3 0 1.5 1.5 0 0 1 3 0M184 225a2.999 2.999 0 1 1-6 0 3 3 0 0 1 6 0" mask="url(#f)"/>
        <path fill="#FFF" d="M179.468 217.96a2.499 2.499 0 1 1-3.936 3.079 2.498 2.498 0 1 1 3.936-3.078M177.787 214.385a1 1 0 1 1-1.575 1.232 1 1 0 0 1 1.575-1.232" mask="url(#f)"/>
        <path fill="#BAE4EA" d="M211 229.946c0 2.239-1.845 4.054-4.119 4.054h-5.761c-2.273 0-4.12-1.815-4.12-4.054v-41.89c0-2.24 1.847-4.056 4.12-4.056h5.761c2.274 0 4.119 1.817 4.119 4.057v41.889z" mask="url(#f)"/>
        <path fill="#FFBB1D" d="M198 207.011v22.36c0 2.005 1.447 3.629 3.233 3.629h4.532c1.788 0 3.235-1.624 3.235-3.629V207c-.036 0-.072.011-.108.011H198z" mask="url(#f)"/>
        <path fill="#8AD1D5" d="M212 185.499c0 .83-.77 1.501-1.72 1.501h-13.56c-.95 0-1.72-.671-1.72-1.501 0-.827.77-1.499 1.72-1.499h13.56c.95 0 1.72.672 1.72 1.499" mask="url(#f)"/>
        <path fill="#FFBB1D" d="M208 207.5a1.5 1.5 0 1 1-3 0 1.5 1.5 0 0 1 3 0M205 208.997a3.005 3.005 0 0 1-3.001 3.003 3 3 0 1 1 3.001-3.003" mask="url(#f)"/>
        <path fill="#E5A21C" d="M207 201.5a1.5 1.5 0 1 1-3 0 1.5 1.5 0 0 1 3 0M205 212.499a1.501 1.501 0 1 1-1.502-1.499c.829 0 1.502.672 1.502 1.499M207 225a3 3 0 1 1-6.001.001A3 3 0 0 1 207 225" mask="url(#f)"/>
        <path fill="#FFF" d="M202.47 217.96a2.5 2.5 0 1 1-3.94 3.078 2.5 2.5 0 0 1 3.94-3.077M200.788 214.385a.999.999 0 0 1-1.574 1.23 1 1 0 0 1 1.574-1.23" mask="url(#f)"/>
        <path fill="#424141" d="M225 239.999c0 1.658-.94 3.001-2.091 3.001H117.09c-1.154 0-2.091-1.343-2.091-3.001 0-1.656.937-2.999 2.091-2.999H222.91c1.151 0 2.091 1.343 2.091 2.999M121 237h2v-58h-2zM217 237h2v-58h-2z" mask="url(#f)"/>
        <path fill="#424141" d="M117 195h104v-2H117z" mask="url(#f)"/>
    </g>
</svg>
