<svg xmlns="http://www.w3.org/2000/svg" xmlns:xlink="http://www.w3.org/1999/xlink" width="169" height="87" viewBox="0 0 169 87">
    <defs>
        <path id="a" d="M0 46.925h146.257V.208H0z"/>
        <path id="c" d="M0 87.032h168.895V0H0z"/>
    </defs>
    <g fill="none" fill-rule="evenodd">
        <g transform="translate(0 40.107)">
            <mask id="b" fill="#fff">
                <use xlink:href="#a"/>
            </mask>
            <path fill="#FEFEFE" d="M146.257 5.864L26.269.346c-.498-.061-1-.107-1.507-.138.014.341.025.682.031 1.024l1.336.06c.103.014.207.024.31.039l4.88.224c-.026-.01-.053-.018-.079-.027l104.635 4.811-94.145 4.33c.207.292.402.589.59.887a22.279 22.279 0 0 1 3.489 11.99c0 12.366-10.062 22.427-22.429 22.427C11.013 45.973.952 35.912.952 23.545c0-11.573 8.81-21.126 20.077-22.305l.008-.04a8.143 8.143 0 0 1-.03-.907C9.228 1.487 0 11.455 0 23.545c0 12.892 10.488 23.38 23.38 23.38s23.38-10.488 23.38-23.38c0-4.389-1.227-8.49-3.341-12l102.838-4.73v-.95z" mask="url(#b)"/>
        </g>
        <path fill="#FEFEFE" d="M60.84 59.74l4.348 17.133h-4.131l-.8-3.59h-3.419l.563-2.856h2.27l-1.34-6.966-3.029 13.412h-3.894l4.348-17.133z"/>
        <mask id="d" fill="#fff">
            <use xlink:href="#c"/>
        </mask>
        <path fill="#FEFEFE" d="M75.248 76.873h3.742V59.74h-3.742v17.133zm-.454-1.146l-4.284-8.675v-5.97l4.284 8.74v5.905zm-8.437 1.146h3.677V59.74h-3.677v17.133zM84.528 76.873h3.937V63.288h-3.937v13.585zm-4.11-14.256h12.2V59.74h-12.2v2.877zM98.524 76.873h5.149V73.91h-5.149v2.963zm0-7.485h4.846v-2.855h-4.846v2.855zm0-6.77h5.149V59.74h-5.149v2.877zM93.96 76.872h3.96V59.74h-3.96v17.133zM111.677 74.45c1.139-.1 1.71-.648 1.71-1.643v-2.358h4.11v1.839c0 3.2-1.94 4.845-5.82 4.932v-2.77zm0-15.1c3.88.03 5.82 1.616 5.82 4.76v1.6h-4.11v-1.817c0-1.095-.571-1.672-1.71-1.73v-2.812zm-6.403 4.695c0-2.942 1.868-4.5 5.602-4.673v2.813c-1.052.13-1.578.7-1.578 1.708v8.914c0 .952.526 1.5 1.578 1.644v2.769c-3.734-.144-5.602-1.825-5.602-5.041v-8.134zM119.552 76.873h-1.147v-2.92h3.57v2.812l-1.904 2.661h-1.796zM131.081 76.873h4.046V59.74h-4.046zM146.181 76.873h3.742V59.74h-3.742v17.133zm-.454-1.146l-4.284-8.675v-5.97l4.284 8.74v5.905zm-8.437 1.146h3.677V59.74h-3.677v17.133zM158.36 74.45c1.14-.1 1.71-.648 1.71-1.643v-2.358h4.11v1.839c0 3.2-1.94 4.845-5.82 4.932v-2.77zm0-15.1c3.88.03 5.82 1.616 5.82 4.76v1.6h-4.11v-1.817c0-1.095-.57-1.672-1.71-1.73v-2.812zm-6.403 4.695c0-2.942 1.868-4.5 5.603-4.673v2.813c-1.053.13-1.58.7-1.58 1.708v8.914c0 .952.527 1.5 1.58 1.644v2.769c-3.735-.144-5.603-1.825-5.603-5.041v-8.134zM165.088 76.873h3.807V74.17h-3.807zM22.051.732a2.094 2.094 0 0 0-2.091 2.091c0 1.153.938 2.092 2.091 2.092a2.094 2.094 0 0 0 2.092-2.092A2.094 2.094 0 0 0 22.05.732m0 4.915a2.827 2.827 0 0 1-2.823-2.824A2.827 2.827 0 0 1 22.05 0a2.827 2.827 0 0 1 2.824 2.823 2.827 2.827 0 0 1-2.824 2.824M23.044 10.345c-.72 0-1.304.585-1.304 1.304 0 .72.585 1.304 1.304 1.304.72 0 1.304-.585 1.304-1.304 0-.719-.585-1.304-1.304-1.304m0 3.34a2.038 2.038 0 0 1-2.036-2.036c0-1.123.913-2.036 2.036-2.036s2.036.913 2.036 2.036a2.038 2.038 0 0 1-2.036 2.036M16.447 6.27A1.41 1.41 0 0 0 15.04 7.68a1.41 1.41 0 0 0 1.407 1.407 1.41 1.41 0 0 0 1.408-1.407 1.41 1.41 0 0 0-1.408-1.408m0 3.548c-1.18 0-2.14-.96-2.14-2.14 0-1.18.96-2.14 2.14-2.14 1.18 0 2.14.96 2.14 2.14 0 1.18-.96 2.14-2.14 2.14M22.167 55.53h2.105V19.836h-2.105V55.53zm2.105 5.125c0 2.542-1.227 4.748-3.016 5.847.574-1.175.91-2.577.91-4.084v-4.691h2.106v2.928zm2.8-44.389H13.564l1.184 1.765v44.591c0 4.114 2.495 7.46 5.562 7.46 3.076 0 5.578-3.356 5.578-7.48V17.96l1.184-1.694z" mask="url(#d)"/>
    </g>
</svg>
