<svg xmlns="http://www.w3.org/2000/svg" width="169" height="26" viewBox="0 0 169 26">
    <g fill="#FEFEFE" fill-rule="evenodd">
        <path d="M13.615.868l6.276 24.73h-5.964l-1.156-5.183H7.838l.812-4.122h3.278L9.993 6.238 5.62 25.598H0L6.276.869zM34.615 25.599h5.402V.868h-5.402v24.73zm-.656-1.655l-6.183-12.522V2.804l6.183 12.615v8.525zm-12.178 1.655h5.308V.868h-5.308v24.73zM47.316 25.599H53V5.989h-5.683V25.6zM41.383 5.02h17.612V.868H41.383V5.02zM67.575 25.599h7.432V21.32h-7.432V25.6zm0-10.804h6.995v-4.122h-6.995v4.122zm0-9.774h7.432V.868h-7.432V5.02zm-6.589 20.578H66.7V.868h-5.714v24.73zM87.86 21.795c1.643-.145 2.466-.936 2.466-2.373V16.02h5.933v2.654c0 4.621-2.8 6.994-8.4 7.12v-3.998zM87.86 0c5.599.042 8.4 2.332 8.4 6.87v2.31h-5.934V6.557c0-1.581-.823-2.414-2.467-2.498V0zm-9.244 6.776c0-4.246 2.696-6.495 8.088-6.745v4.06c-1.52.187-2.28 1.01-2.28 2.466v12.865c0 1.375.76 2.166 2.28 2.373v3.997c-5.392-.207-8.088-2.633-8.088-7.275V6.776zM115.438 25.599h5.84V.868h-5.84zM136.985 25.599h5.401V.868h-5.401v24.73zm-.656-1.655l-6.183-12.522V2.804l6.183 12.615v8.525zm-12.179 1.655h5.309V.868h-5.309v24.73zM154.683 21.795c1.644-.145 2.467-.936 2.467-2.373V16.02h5.933v2.654c0 4.621-2.8 6.994-8.4 7.12v-3.998zm0-21.795c5.6.042 8.4 2.332 8.4 6.87v2.31h-5.933V6.557c0-1.581-.823-2.414-2.467-2.498V0zm-9.243 6.776c0-4.246 2.696-6.495 8.087-6.745v4.06c-1.52.187-2.279 1.01-2.279 2.466v12.865c0 1.375.76 2.166 2.28 2.373v3.997c-5.392-.207-8.088-2.633-8.088-7.275V6.776zM163.356 24.374h5.495V20.47h-5.495z"/>
    </g>
</svg>
