<svg xmlns="http://www.w3.org/2000/svg" xmlns:xlink="http://www.w3.org/1999/xlink" width="485" height="250" viewBox="0 0 485 250">
    <defs>
        <path id="a" d="M0 249.912h484.98V0H0z"/>
    </defs>
    <g fill="none" fill-rule="evenodd">
        <path fill="#5F5C5A" d="M419.974 132.005L75.431 116.161a70.04 70.04 0 0 0-4.329-.398c.042.98.072 1.96.09 2.94l3.836.176c.297.037.595.066.89.108l14.016.644c-.076-.027-.153-.05-.229-.077l300.457 13.816-270.335 12.432a57.01 57.01 0 0 1 1.695 2.549c6.334 9.964 10.017 21.769 10.017 34.425 0 35.511-28.891 64.401-64.404 64.401-35.51 0-64.402-28.89-64.402-64.401 0-33.232 25.301-60.662 57.65-64.048l.024-.114a23.383 23.383 0 0 1-.083-2.606C26.496 119.436 0 148.058 0 182.776c0 37.018 30.117 67.136 67.135 67.136 37.02 0 67.137-30.118 67.137-67.136 0-12.603-3.524-24.381-9.596-34.46l295.298-13.58v-2.73z"/>
        <path fill="#5F5C5A" d="M174.702 171.543l12.486 49.198h-11.865l-2.299-10.311h-9.814l1.616-8.2h6.521l-3.85-20.003-8.697 38.514h-11.182l12.486-49.198z"/>
        <mask id="b" fill="#fff">
            <use xlink:href="#a"/>
        </mask>
        <path fill="#5F5C5A" d="M216.073 220.74h10.746v-49.197h-10.746v49.198zm-1.304-3.291l-12.3-24.91v-17.145l12.3 25.096v16.959zm-24.227 3.292h10.56v-49.198h-10.56v49.198zM242.722 220.74h11.305v-39.01h-11.305v39.01zm-11.803-40.936h35.035v-8.261h-35.035v8.261zM282.911 220.74h14.783v-8.509h-14.783v8.51zm0-21.492h13.916v-8.2H282.91v8.2zm0-19.444h14.783v-8.261h-14.783v8.261zm-13.108 40.937h11.368v-49.198h-11.368v49.198zM320.679 213.784c3.27-.29 4.908-1.864 4.908-4.721v-6.77h11.803v5.28c0 9.192-5.572 13.913-16.711 14.162v-7.951zm0-43.359c11.14.084 16.71 4.639 16.71 13.667v4.596h-11.802v-5.219c0-3.146-1.638-4.803-4.908-4.968v-8.076zm-18.387 13.48c0-8.447 5.363-12.92 16.088-13.418v8.075c-3.022.373-4.533 2.01-4.533 4.907v25.594c0 2.734 1.51 4.307 4.533 4.72v7.952c-10.725-.414-16.088-5.238-16.088-14.474v-23.357zM343.29 220.741h-3.292v-8.386h10.25v8.075l-5.467 7.641h-5.156zM376.398 220.74h11.617v-49.197h-11.617zM419.757 220.74h10.745v-49.197h-10.745v49.198zm-1.305-3.291l-12.3-24.91v-17.145l12.3 25.096v16.959zm-24.227 3.292h10.56v-49.198h-10.56v49.198zM454.729 213.784c3.27-.29 4.908-1.864 4.908-4.721v-6.77h11.803v5.28c0 9.192-5.572 13.913-16.711 14.162v-7.951zm0-43.359c11.14.084 16.71 4.639 16.71 13.667v4.596h-11.802v-5.219c0-3.146-1.638-4.803-4.908-4.968v-8.076zm-18.387 13.48c0-8.447 5.363-12.92 16.088-13.418v8.075c-3.023.373-4.533 2.01-4.533 4.907v25.594c0 2.734 1.51 4.307 4.533 4.72v7.952c-10.725-.414-16.088-5.238-16.088-14.474v-23.357zM474.048 220.74h10.933v-7.764h-10.933zM63.32 2.101a6.012 6.012 0 0 0-6.006 6.006 6.013 6.013 0 0 0 6.006 6.006 6.014 6.014 0 0 0 6.005-6.006A6.013 6.013 0 0 0 63.32 2.1m0 14.113c-4.47 0-8.108-3.637-8.108-8.107 0-4.47 3.637-8.108 8.108-8.108 4.47 0 8.107 3.637 8.107 8.108 0 4.47-3.637 8.107-8.107 8.107M66.171 29.705a3.75 3.75 0 0 0-3.745 3.744 3.75 3.75 0 0 0 3.745 3.747 3.75 3.75 0 0 0 3.744-3.747 3.75 3.75 0 0 0-3.744-3.744m0 9.592a5.853 5.853 0 0 1-5.848-5.848 5.854 5.854 0 0 1 5.848-5.846 5.853 5.853 0 0 1 5.847 5.846 5.853 5.853 0 0 1-5.847 5.848M47.228 18.007a4.048 4.048 0 0 0-4.042 4.042 4.047 4.047 0 0 0 4.042 4.043 4.047 4.047 0 0 0 4.043-4.043 4.048 4.048 0 0 0-4.043-4.042m0 10.187a6.152 6.152 0 0 1-6.144-6.145 6.152 6.152 0 0 1 6.144-6.144 6.152 6.152 0 0 1 6.145 6.144 6.152 6.152 0 0 1-6.145 6.145M63.653 159.453h6.044V56.96h-6.044v102.494zm6.044 14.716c0 7.3-3.523 13.635-8.66 16.79 1.647-3.375 2.614-7.399 2.614-11.725V165.76h6.046v8.408zm8.04-127.46H38.95l3.398 5.066v128.043c0 11.812 7.165 21.421 15.973 21.421 8.831 0 16.016-9.636 16.016-21.48V51.57l3.4-4.862z" mask="url(#b)"/>
    </g>
</svg>
