<svg xmlns="http://www.w3.org/2000/svg" width="743" height="562" viewBox="0 0 743 562">
    <g fill="none" fill-rule="evenodd">
        <path fill="#171717" d="M358.003 786.305l-39.637 2.107c.42-133.317-3.663-293.363-7.643-303.102.135-6.245-6.005-.5-6.005-.5-.566 8.965-3.432 292.404-6.375 299.968-4.22 10.835-39.009-3.895-39.009-3.895-3.409-66.017-17.248-324.078-21.216-360.361l132.769-4.725c.006 59.083-12.884 370.508-12.884 370.508"/>
        <path fill="#282828" d="M323.314 598.39c-3.907-72.867-4.065-109.162-6.39-114.85.136-6.243-16.593-1.574-16.593-1.574-.264 4.19-4.628 48.033-5.337 115.896-.481 46.096-40.378 34.613-41.952 1.574-4.182-87.843-8.5-142.763-10.753-163.355 36.808 6.17 80.178.059 125.336-7.16.003 29.373-1.571 87.658-5.689 168.293-1.439 28.145-36.13 47.626-38.622 1.175"/>
        <path fill="#FCA580" d="M575.381 264.746c-1.838 1.914-13.238 2.916-17.772 8.67-.22 1.538 6.72 6.098 13.994 5.811 3.88-.161 13.385-.847 15.194-.507 8.443 1.577 3.892 7.037 4.214 7.049 6.12.228 7.72 6.58 3.294 8.165 1.727-.352 6.39 5.695-3.742 7.904 1.893-.641 3.605 4.529-6.044 7.357-9.076 2.661-13.904 2.075-22.142 1.125-6.448-.753-14.258-3.989-19.214-7.122a17.286 17.286 0 0 1-1.135-.788c-4.2-3.154-9.314-4.871-14.566-4.8l-4.138.055 8.04-24.191s1.928.053 2.127-.135c1.342-1.257 4.337-3.1 5.592-4.01 4.437-3.288 8.013-2.816 13.549-4.95 23.4-9.032 27.078-4.14 22.749.367"/>
        <path fill="#FFBD95" d="M557.607 273.417c-.217 1.539 6.724 6.096 13.995 5.809 3.883-.161 13.388-.844 15.193-.507 7.093 1.327 5.018 5.39 4.361 6.664-.123.244-.196.384-.146.387.132.006.26.012.387.024 5.8.475 7.239 6.588 2.907 8.139 1.726-.35 6.39 5.694-3.743 7.904 1.897-.639-13.47 5.07-26.696-1.732-5.774-2.963-7.368-23.62-6.258-26.688"/>
        <path fill="#FCA580" d="M36.822 265.586c1.87 1.885 13.28 2.702 17.91 8.385.241 1.533-6.623 6.205-13.9 6.032-3.884-.097-13.397-.627-15.2-.261-8.42 1.714-3.777 7.098-4.1 7.116-6.116.325-7.614 6.703-3.162 8.218-1.732-.325-6.298 5.794 3.866 7.84-1.902-.61-3.529 4.587 6.16 7.26 9.121 2.514 13.936 1.852 22.163.77 6.43-.856 14.188-4.217 19.094-7.43a17.95 17.95 0 0 0 1.375-1.008c4.006-3.182 8.93-5.008 14.036-5.284l2.462.047-6.554-23.666s-1.925.085-2.128-.1c-1.362-1.234-4.39-3.03-5.656-3.918-4.487-3.216-8.054-2.688-13.625-4.734-23.54-8.651-27.14-3.704-22.74.733"/>
        <path fill="#FFBD95" d="M54.732 273.97c.243 1.533-6.624 6.205-13.9 6.035-3.881-.1-13.398-.63-15.2-.264-7.07 1.44-4.93 5.47-4.253 6.732.13.244.203.381.153.384-.132.01-.261.018-.387.03-5.791.568-7.134 6.705-2.776 8.188-1.732-.325-6.298 5.795 3.87 7.84-1.906-.61 13.548 4.854 26.667-2.157 5.724-3.06 6.987-23.737 5.826-26.787"/>
        <path fill="#23AEFC" d="M392.403 232.593c-20.135-6.228-51.633-9.613-59.308-9.713-.396-.006-52.834-1.535-54.675-1.512-7.673.103-34.935 1.882-55.017 8.268-50.788 16.149-143.97 41.758-143.97 41.758l8.584 34.358c2.632-1.556 105.588-21.39 143.164-23.452 13.77-.757 11.583 17.725 10.903 29.718-2.746 48.291-9.18 105.609-8.42 108.537 2.383 9.159 90.31 11.811 142.437.777 3.16-.669-4.95-74.768-7.693-123.06-.683-11.992-3.098-19.32 8.819-17.81 37.336 4.74 147.49 25.384 147.282 26.23l-11.632-39.237s-69.56-19.118-120.474-34.862"/>
        <path fill="#23CAFC" d="M392.403 232.593c-20.135-6.228-51.633-9.613-59.308-9.713-.396-.006-52.834-1.535-54.675-1.512-7.673.103-34.935 1.882-55.017 8.268-50.788 16.149-143.97 41.758-143.97 41.758l8.584 34.358c2.632-1.556 108.475-25.363 145.77-30.396 11.902-1.609 12.283 22.445 11.6 34.438-2.743 48.29-1.709 74.246 15.674 87.924 24.549 19.32 62.913 34.648 115.04 23.614 3.16-.669-4.671-62.837-7.417-111.128-.68-11.99-4.67-37.093 7.247-35.58 37.333 4.736 148.786 31.222 148.578 32.069l8.312-34.426s-89.504-23.93-140.418-39.674"/>
        <path fill="#FCA580" d="M333.094 222.88c-4.877 7.488-19.988 17.62-26.879 17.62-7.113 0-24.583-12.335-27.793-19.132 2.392-.692 7.046-2.008 7.046-2.008.223-2.075 5.138-8.08 4.886-11.228h32.538c-.601 3.148 4.284 10.724 4.507 13.054 0 0 3.904 1.158 5.695 1.694"/>
        <path fill="#F79B75" d="M285.47 219.361c.22-2.075-.724-8.08-.976-11.228h44.258c-.598 3.148-1.574 10.724-1.354 13.054-11.193 4.663-38.795 5.677-46.914-.41l4.986-1.416z"/>
        <path fill="#FFBD95" d="M362.133 144.32c-2.028-1.402-4.59-1.48-7.204-.068.25-1.39.434-2.41.437-2.45.044-.32.085-.636.123-.968 1.049-8.698 1.711-20.972-.7-31.714.316-.249-92.014-19.08-92.187-17.13-12.857 13.127-10.712 39.19-8.385 51.799-2.315-.965-4.545-.721-6.357.527-3.303 2.278-5.199 7.86-3.607 15.47 1.984 9.486 10.498 8.771 12.18 15.58.885 3.58 4.068 3.355 7.207 2.162 1.544 6.832 1.972 11.767 5.911 16.87 6.337 8.215 22.744 25.566 36.1 25.37 14.586-.22 31.435-17.422 37.687-25.37 3.63-4.613 3.314-9.792 4.109-16.5 2.755.823 5.334.636 6.116-2.533 1.68-6.808 10.196-6.09 12.178-15.58 1.591-7.608-.305-13.189-3.608-15.466"/>
        <path fill="#F79B75" d="M349.145 166.758c.284 2.228 4.03.285 6.767-2.907 1.624-1.896 5.642-2.564 6.207-6.949 1.138-8.854-6.97-7.81-8.584-6.445-1.826 1.548-3.007 3.869-3.681 6.337-1.41 5.178-.838 8.939-.71 9.964M261.626 166.758c-.284 2.228-4.03.285-6.767-2.907-1.623-1.896-5.642-2.564-6.204-6.949-1.14-8.854 6.97-7.81 8.581-6.445 1.829 1.548 3.01 3.869 3.681 6.337 1.413 5.178.841 8.939.71 9.964M262.521 92.475c-.182 23.54 28.827 31.875 41.219 32.333 28.306 1.046 45.176-6.724 50.911-15.683 3.168-4.95-91.899-19.262-92.13-16.65"/>
        <path fill="#6B200E" d="M355.579 108.365c.032.402.316-.249 0 0 4.3 19.121-.642 35.827-.642 35.827-1.172.993-6.89 5.97-6.89 5.97s-1.416-15.645-6.516-30.958a57.942 57.942 0 0 0-.768-2.196c-8.51 3.078-19.706 4.584-36.397 3.969-4.027-.15-9.622-.891-15.41-2.609-5.798-1.714-11.797-4.405-16.624-8.438-.504.49-.979 1.097-1.436 1.797-7.316 11.29-8.377 38.435-8.377 38.435-.137.085-5.199-5.13-8.303-6.372-1.107-1.16-12.306-30.173 4.79-47.628 1.855-20.774 37.737-23.136 54-19.67 34.422 7.33 41.799 21.794 42.573 31.873"/>
        <path fill="#49130C" d="M354.646 109.124c-2.407 3.757-6.774 7.3-13.116 10.079a59.829 59.829 0 0 0-.765-2.195c-8.514 3.077-19.71 4.584-36.398 3.968-4.03-.146-9.624-.89-15.413-2.608-5.797-1.715-11.793-4.405-16.623-8.438-.501.49-.976 1.096-1.436 1.8-6.316-4.385-11.95-7.439-11.888-15.57 1.852-20.773 97.186 10.549 95.639 12.964"/>
        <path fill="#822819" d="M349.001 101.216l.721 7.145c1.351 13.438-21.025 13.564-47.027 12.485-11.228-.463-38.957-3.525-41.697-24.791-.038-.3.032.31 0 0 1.682-20.78 34.642-23.142 49.586-19.605 22.204 5.246 27.515 14.2 34.924 19.256 3.148 2.145-1.855 8.367 3.493 5.51"/>
        <path fill="#6B200E" d="M355.579 108.363c-10.399 8.628-22.902 13.587-51.21 12.54-5.906-.216-15.17-1.793-23.506-5.762-18.941-9.026-12.567-29.7 7.793-34.788 9.707-2.424 19.868-1.48 27.175.557 17.19 4.789 27.013 10.908 35.173 14.803 1.823 1.137 6.553 11.008 4.575 12.65"/>
        <path fill="#F79B75" d="M300.516 175.923c.366.762 1.014 1.738 2.043 2.406 1.017.68 2.394 1.058 4.02.809a6.697 6.697 0 0 0 2.659-1.032c.935-.612 1.943-1.556 2.828-2.954.876-1.372 1.586-3.045 1.987-4.8.416-1.765.431-3.547.179-4.857-.243-1.337-.671-2.28-1.084-3.063-.42-.776-.842-1.386-1.21-1.966-.751-1.123-1.323-.279-.742 1.166.55 1.46 1.354 3.06 1.568 5.09a8.755 8.755 0 0 1-.27 3.219 11.552 11.552 0 0 1-1.413 3.236c-1.234 1.937-2.851 2.936-4.287 3.414-1.463.486-2.77.519-3.799.258a4.623 4.623 0 0 1-2.265-1.322c-.238-.252-.396.012-.214.396"/>
        <path fill="#D16556" d="M284.116 185.225c18.62 22.561 31.64 12.362 43.411.864.349-.334.003-.926-.469-.788-1.125.343-2.687.797-4.396 1.298-4.473 1.284-9.98 2.832-11.413 3.005-1.999.237-3.49.34-4.504.36-.018 0-.07.041-.091.023-1.014.021-1.515-.005-1.606-.02-1.645-.02-3.344.003-4.992-.37-3.947-.923-8.303-2.212-11.98-3.578a69.887 69.887 0 0 1-3.515-1.445c-.398-.181-.72.317-.445.65"/>
        <path fill="#FFFEE9" d="M288.075 186.02c14.139 14.06 24.936 9.004 34.587.58-4.473 1.285-9.98 2.83-11.413 3.002-1.999.24-3.49.343-4.504.363-.018 0-.07.039-.091.024-1.014.017-1.515-.009-1.606-.02-1.647-.021-3.344 0-4.992-.37-3.947-.926-8.303-2.216-11.98-3.578"/>
        <path fill="#49130C" d="M320.286 152.808c.31 1.938 3.206 3.462 6.46 3.403 3.25-.059 5.638-1.676 5.325-3.614-.311-1.937-3.2-3.458-6.457-3.402-3.253.058-5.636 1.676-5.328 3.613M280.56 151.841c.31 1.937 3.203 3.461 6.456 3.403 3.253-.059 5.639-1.677 5.328-3.614-.313-1.937-3.203-3.461-6.46-3.403-3.252.06-5.635 1.677-5.324 3.614"/>
        <path fill="#6B200E" d="M271.721 143.939c-.167.19.648.744.86.606 1.746-1.12 5.175-3.514 7.704-3.86 1.847-.254 11.46-.6 12.52-.72 1.554-.18 4.074-6.419 3.412-6.313-6.855 1.096-16.14 2.347-18.147 3.607-1.102.692-4.57 4.622-6.349 6.68M339.957 144.442c.173.188-.586 1.079-.8.944-1.761-1.093-5.167-3.09-7.643-3.713-1.363-.343-11.032-.604-13.503-.941-1.656-.223-3.153-6.342-2.497-6.205 10.536 2.21 15.973 2.099 18.001 3.33 1.111.674 4.634 4.554 6.442 6.585"/>
        <path fill="#23CAFC" d="M278.603 209.657l-11.723 17.585 14.654 20.516 26.377-5.862 26.378 5.862 14.654-20.516-11.723-17.585-29.309 29.308z"/>
        <g fill="#5F5C5A">
            <path d="M686.248 299.4l-144.867-15.226c-21.47-2.257-37.324-20.384-35.237-40.24 1.606-15.267 50.545-85.773 73.08-117.55 6.776-9.548 11.17-15.606 11.17-15.606 0-.018.005-.035.008-.05h-.003l1.468-13.971 8.377-79.7 83.965 8.824-1.618 15.39-18.218-1.917a4.41 4.41 0 0 0-4.842 3.922 4.406 4.406 0 0 0 3.922 4.841l18.217 1.917-1.128 10.738-26.837-2.822a4.55 4.55 0 0 0-5 4.048 4.55 4.55 0 0 0 4.047 5l26.84 2.819-1.072 10.176-18.218-1.917a4.41 4.41 0 0 0-4.842 3.921 4.408 4.408 0 0 0 3.922 4.842l18.218 1.914-1.788 17.005-1.445 13.757c.006.014 3.042 6.84 7.682 17.564 15.445 35.718 48.663 114.77 47.033 130.287-2.119 20.181-21.365 34.29-42.834 32.033m-2.113-182.185l9.5-90.342 9.586 1.008a7.537 7.537 0 0 0 8.282-6.709 7.532 7.532 0 0 0-6.705-8.28L583.016.09a7.535 7.535 0 0 0-8.28 6.709 7.538 7.538 0 0 0 6.707 8.282l9.378.985-9.294 88.443a7.275 7.275 0 0 0-.36 1.55s-87.875 121.242-90.234 143.669c-2.353 22.43 15.554 42.901 39.8 45.451L694.37 312.38c24.252 2.547 45.987-13.39 48.382-36.184 2.327-22.133-55.27-151.49-58.617-158.982"/>
            <path d="M647.109 256.635c-5.328-.56-9.194-5.334-8.634-10.662.56-5.329 5.334-9.194 10.662-8.634 5.328.56 9.194 5.334 8.634 10.662-.563 5.331-5.334 9.194-10.662 8.634m-77.488-8.145c-5.331-.56-9.194-5.334-8.634-10.662.56-5.328 5.334-9.194 10.662-8.634 5.325.56 9.194 5.337 8.631 10.662-.556 5.328-5.33 9.194-10.659 8.634m23.124-86.43a13.048 13.048 0 0 1 9.147-2.505c7.195.756 12.415 7.2 11.659 14.396-.756 7.195-7.201 12.415-14.396 11.659a13.048 13.048 0 0 1-8.426-4.353c-2.35-2.655-3.634-6.24-3.233-10.044.402-3.804 2.4-7.045 5.25-9.152m22.35 45.114c5.33.556 9.194 5.334 8.63 10.659-.556 5.331-5.33 9.194-10.659 8.637-5.328-.56-9.194-5.334-8.634-10.665.56-5.328 5.334-9.194 10.663-8.631m44.19-36.26c-.756 7.198-7.2 12.414-14.396 11.658-7.195-.756-12.412-7.2-11.656-14.396.754-7.195 7.201-12.412 14.397-11.659 7.195.76 12.412 7.204 11.655 14.397m-14.005-42.947c-.818 7.779-7.783 13.417-15.558 12.6-7.776-.818-13.414-7.783-12.597-15.558.814-7.776 7.782-13.414 15.558-12.6 7.776.82 13.414 7.785 12.597 15.558m20.837-3.645l.59-5.577.952-9.065.78-7.447.418-3.98-34.454-3.62-34.191-3.596-.41 3.875-.8 7.623-.944 8.994-.677 6.416a6.556 6.556 0 0 0-.833 2.55s-8.355 11.489-19.595 27.482c-22.655 32.254-57.034 82.851-58.276 94.665-1.858 17.67 12.25 33.804 31.36 35.812l128.932 13.552c19.109 2.008 36.233-10.55 38.12-28.511 1.273-12.072-21.919-69.205-37.256-105.357-7.476-17.626-13.086-30.263-13.086-30.263.13-1.237-.102-2.421-.63-3.553z"/>
        </g>
        <g fill="#5F5C5A">
            <path d="M51.345 290.584l-36.925 3.88c-5.472.578-10.387-3.103-10.917-8.162-.41-3.895 8.056-24.065 11.99-33.182 1.184-2.738 1.957-4.485 1.957-4.485v-.011l-.375-3.561-2.136-20.314 21.4-2.248.414 3.922-4.643.486a1.124 1.124 0 0 0-1 1.234 1.12 1.12 0 0 0 1.235 1l4.642-.487.29 2.737-6.843.718a1.159 1.159 0 0 0 .243 2.307l6.84-.721.273 2.594-4.642.49a1.124 1.124 0 0 0-1 1.233 1.124 1.124 0 0 0 1.234 1l4.643-.49.457 4.335.366 3.508c.003.003 1.123 1.542 2.849 3.971 5.741 8.086 18.212 26.035 18.628 29.988.542 5.147-3.508 9.684-8.98 10.258m-10.181-45.307l-2.421-23.03 2.444-.256a1.922 1.922 0 0 0-.401-3.821l-31.04 3.262a1.92 1.92 0 0 0 .4 3.821l2.392-.252 2.368 22.544c-.014.132-.02.267-.005.405 0 0-15.484 34.885-14.883 40.6.6 5.718 6.149 9.874 12.33 9.223l41.708-4.381c6.184-.65 10.756-5.777 10.147-11.589-.592-5.638-21.808-34.838-23.04-36.526"/>
            <path d="M39.32 281.996a2.472 2.472 0 1 1-.516-4.918 2.472 2.472 0 1 1 .516 4.918m-19.75 2.075a2.473 2.473 0 1 1-.52-4.918 2.475 2.475 0 0 1 2.72 2.201 2.468 2.468 0 0 1-2.2 2.717m1.186-22.772a3.305 3.305 0 0 1 2.146-1.108 3.338 3.338 0 1 1 .697 6.638 3.31 3.31 0 0 1-2.33-.639 3.326 3.326 0 0 1-1.34-2.33c-.099-.973.227-1.884.827-2.561m7.96 10.061a2.472 2.472 0 1 1 .519 4.918 2.473 2.473 0 1 1-.519-4.918m9.098-11.38a3.338 3.338 0 1 1-6.642.698 3.34 3.34 0 0 1 6.642-.698m-5.694-10.032a3.646 3.646 0 1 1-7.254.762 3.647 3.647 0 0 1 7.254-.762m5.272-1.096a1.691 1.691 0 0 0-.343-.85l-.15-1.422-.243-2.312-.2-1.896-.108-1.014-8.78.923-.033.003-8.684.911.106.988.205 1.943.24 2.292.17 1.635c-.067.22-.096.446-.073.68 0 0-1.474 3.306-3.43 7.89-3.938 9.244-9.826 23.678-9.51 26.691.472 4.505 4.845 7.778 9.716 7.265l32.863-3.452c4.871-.513 8.476-4.552 7.993-9.13-.323-3.074-9.133-16.09-14.871-24.293a599.64 599.64 0 0 0-4.868-6.852"/>
        </g>
    </g>
</svg>
